<svg width="38" height="38" viewBox="0 0 38 38" fill="none" xmlns="http://www.w3.org/2000/svg">
<g filter="url(#filter0_d_1210_204)">
<path d="M9.775 22.65C11.05 21.675 12.475 20.906 14.05 20.343C15.625 19.781 17.275 19.5 19 19.5C20.725 19.5 22.375 19.781 23.95 20.343C25.525 20.906 26.95 21.675 28.225 22.65C29.1 21.625 29.7815 20.4625 30.2695 19.1625C30.7565 17.8625 31 16.475 31 15C31 11.675 29.8315 8.8435 27.4945 6.5055C25.1565 4.1685 22.325 3 19 3C15.675 3 12.844 4.1685 10.507 6.5055C8.169 8.8435 7 11.675 7 15C7 16.475 7.244 17.8625 7.732 19.1625C8.219 20.4625 8.9 21.625 9.775 22.65ZM19 16.5C17.525 16.5 16.281 15.994 15.268 14.982C14.256 13.969 13.75 12.725 13.75 11.25C13.75 9.775 14.256 8.531 15.268 7.518C16.281 6.506 17.525 6 19 6C20.475 6 21.719 6.506 22.732 7.518C23.744 8.531 24.25 9.775 24.25 11.25C24.25 12.725 23.744 13.969 22.732 14.982C21.719 15.994 20.475 16.5 19 16.5ZM19 30C16.925 30 14.975 29.606 13.15 28.818C11.325 28.031 9.7375 26.9625 8.3875 25.6125C7.0375 24.2625 5.969 22.675 5.182 20.85C4.394 19.025 4 17.075 4 15C4 12.925 4.394 10.975 5.182 9.15C5.969 7.325 7.0375 5.7375 8.3875 4.3875C9.7375 3.0375 11.325 1.9685 13.15 1.1805C14.975 0.3935 16.925 0 19 0C21.075 0 23.025 0.3935 24.85 1.1805C26.675 1.9685 28.2625 3.0375 29.6125 4.3875C30.9625 5.7375 32.031 7.325 32.818 9.15C33.606 10.975 34 12.925 34 15C34 17.075 33.606 19.025 32.818 20.85C32.031 22.675 30.9625 24.2625 29.6125 25.6125C28.2625 26.9625 26.675 28.031 24.85 28.818C23.025 29.606 21.075 30 19 30Z" fill="white"/>
</g>
<defs>
<filter id="filter0_d_1210_204" x="0" y="0" width="38" height="38" filterUnits="userSpaceOnUse" color-interpolation-filters="sRGB">
<feFlood flood-opacity="0" result="BackgroundImageFix"/>
<feColorMatrix in="SourceAlpha" type="matrix" values="0 0 0 0 0 0 0 0 0 0 0 0 0 0 0 0 0 0 127 0" result="hardAlpha"/>
<feOffset dy="4"/>
<feGaussianBlur stdDeviation="2"/>
<feComposite in2="hardAlpha" operator="out"/>
<feColorMatrix type="matrix" values="0 0 0 0 0 0 0 0 0 0 0 0 0 0 0 0 0 0 0.25 0"/>
<feBlend mode="normal" in2="BackgroundImageFix" result="effect1_dropShadow_1210_204"/>
<feBlend mode="normal" in="SourceGraphic" in2="effect1_dropShadow_1210_204" result="shape"/>
</filter>
</defs>
</svg>
