<svg width="38" height="38" viewBox="0 0 38 38" fill="none" xmlns="http://www.w3.org/2000/svg">
<g filter="url(#filter0_d_1216_265)">
<path d="M11.5 20H16C16.3978 20 16.7794 19.7893 17.0607 19.4142C17.342 19.0391 17.5 18.5304 17.5 18C17.5 17.4696 17.342 16.9609 17.0607 16.5858C16.7794 16.2107 16.3978 16 16 16H11.5C11.1022 16 10.7206 16.2107 10.4393 16.5858C10.158 16.9609 10 17.4696 10 18C10 18.5304 10.158 19.0391 10.4393 19.4142C10.7206 19.7893 11.1022 20 11.5 20ZM29.5 0H8.5C7.30653 0 6.16193 0.632141 5.31802 1.75736C4.47411 2.88258 4 4.4087 4 6V24C4 25.5913 4.47411 27.1174 5.31802 28.2426C6.16193 29.3679 7.30653 30 8.5 30H29.5C30.6935 30 31.8381 29.3679 32.682 28.2426C33.5259 27.1174 34 25.5913 34 24V6C34 4.4087 33.5259 2.88258 32.682 1.75736C31.8381 0.632141 30.6935 0 29.5 0ZM31 24C31 24.5304 30.842 25.0391 30.5607 25.4142C30.2794 25.7893 29.8978 26 29.5 26H8.5C8.10218 26 7.72064 25.7893 7.43934 25.4142C7.15804 25.0391 7 24.5304 7 24V12H31V24ZM31 8H7V6C7 5.46957 7.15804 4.96086 7.43934 4.58579C7.72064 4.21071 8.10218 4 8.5 4H29.5C29.8978 4 30.2794 4.21071 30.5607 4.58579C30.842 4.96086 31 5.46957 31 6V8Z" fill="white"/>
</g>
<defs>
<filter id="filter0_d_1216_265" x="0" y="0" width="38" height="38" filterUnits="userSpaceOnUse" color-interpolation-filters="sRGB">
<feFlood flood-opacity="0" result="BackgroundImageFix"/>
<feColorMatrix in="SourceAlpha" type="matrix" values="0 0 0 0 0 0 0 0 0 0 0 0 0 0 0 0 0 0 127 0" result="hardAlpha"/>
<feOffset dy="4"/>
<feGaussianBlur stdDeviation="2"/>
<feComposite in2="hardAlpha" operator="out"/>
<feColorMatrix type="matrix" values="0 0 0 0 0 0 0 0 0 0 0 0 0 0 0 0 0 0 0.25 0"/>
<feBlend mode="normal" in2="BackgroundImageFix" result="effect1_dropShadow_1216_265"/>
<feBlend mode="normal" in="SourceGraphic" in2="effect1_dropShadow_1216_265" result="shape"/>
</filter>
</defs>
</svg>
