<svg width="60" height="60" viewBox="0 0 60 60" fill="none" xmlns="http://www.w3.org/2000/svg">
<path d="M19.2 45L30 34.2L40.8 45L45 40.8L34.2 30L45 19.2L40.8 15L30 25.8L19.2 15L15 19.2L25.8 30L15 40.8L19.2 45ZM30 60C25.85 60 21.95 59.212 18.3 57.636C14.65 56.062 11.475 53.925 8.775 51.225C6.075 48.525 3.938 45.35 2.364 41.7C0.788 38.05 0 34.15 0 30C0 25.85 0.788 21.95 2.364 18.3C3.938 14.65 6.075 11.475 8.775 8.775C11.475 6.075 14.65 3.937 18.3 2.361C21.95 0.787 25.85 0 30 0C34.15 0 38.05 0.787 41.7 2.361C45.35 3.937 48.525 6.075 51.225 8.775C53.925 11.475 56.062 14.65 57.636 18.3C59.212 21.95 60 25.85 60 30C60 34.15 59.212 38.05 57.636 41.7C56.062 45.35 53.925 48.525 51.225 51.225C48.525 53.925 45.35 56.062 41.7 57.636C38.05 59.212 34.15 60 30 60ZM30 54C36.7 54 42.375 51.675 47.025 47.025C51.675 42.375 54 36.7 54 30C54 23.3 51.675 17.625 47.025 12.975C42.375 8.325 36.7 6 30 6C23.3 6 17.625 8.325 12.975 12.975C8.325 17.625 6 23.3 6 30C6 36.7 8.325 42.375 12.975 47.025C17.625 51.675 23.3 54 30 54Z" fill="#7A9F5A"/>
</svg>
