<svg width="51" height="37" viewBox="0 0 51 37" fill="none" xmlns="http://www.w3.org/2000/svg">
<path d="M22.7545 36.4073H12.515C9.06389 36.4073 6.11566 35.2127 3.67031 32.8234C1.22344 30.4342 0 27.514 0 24.0629C0 21.1048 0.891219 18.4691 2.67366 16.1557C4.4561 13.8423 6.78844 12.3633 9.67068 11.7186C10.6188 8.22956 12.515 5.4042 15.3593 3.24252C18.2036 1.08084 21.4272 0 25.03 0C29.4671 0 33.2307 1.54503 36.3208 4.6351C39.4124 7.72669 40.9582 11.491 40.9582 15.9282C43.575 16.2316 45.7465 17.3594 47.4728 19.3118C49.1976 21.2656 50.06 23.551 50.06 26.1677C50.06 29.012 49.0649 31.4301 47.0746 33.4219C45.0828 35.4121 42.6648 36.4073 39.8205 36.4073H27.3055V20.1378L30.9462 23.6647L34.1318 20.4791L25.03 11.3773L15.9282 20.4791L19.1138 23.6647L22.7545 20.1378V36.4073Z" fill="#7A9F5A"/>
</svg>
