<svg width="30" height="31" viewBox="0 0 30 31" fill="none" xmlns="http://www.w3.org/2000/svg">
<path d="M27.2569 13.0519H26.25V13H15V18H22.0644C21.0338 20.9106 18.2644 23 15 23C10.8581 23 7.5 19.6419 7.5 15.5C7.5 11.3581 10.8581 8 15 8C16.9119 8 18.6513 8.72125 19.9756 9.89937L23.5112 6.36375C21.2787 4.28312 18.2925 3 15 3C8.09688 3 2.5 8.59688 2.5 15.5C2.5 22.4031 8.09688 28 15 28C21.9031 28 27.5 22.4031 27.5 15.5C27.5 14.6619 27.4137 13.8438 27.2569 13.0519Z" fill="#FBC02D"/>
<path d="M3.94122 9.68188L8.0481 12.6938C9.15935 9.9425 11.8506 8 15 8C16.9118 8 18.6512 8.72125 19.9756 9.89937L23.5112 6.36375C21.2787 4.28312 18.2925 3 15 3C10.1987 3 6.03497 5.71062 3.94122 9.68188Z" fill="#E53935"/>
<path d="M15 28C18.2288 28 21.1625 26.7644 23.3806 24.755L19.5119 21.4813C18.2569 22.4319 16.6969 23 15 23C11.7488 23 8.98814 20.9269 7.94814 18.0338L3.87189 21.1744C5.94064 25.2225 10.1419 28 15 28Z" fill="#4CAF50"/>
<path d="M27.2569 13.0519L27.2469 13H26.25H15V18H22.0644C21.5694 19.3981 20.67 20.6037 19.51 21.4819C19.5106 21.4812 19.5113 21.4812 19.5119 21.4806L23.3806 24.7544C23.1069 25.0031 27.5 21.75 27.5 15.5C27.5 14.6619 27.4137 13.8438 27.2569 13.0519Z" fill="#1565C0"/>
</svg>
