<svg width="48" height="48" viewBox="0 0 48 48" fill="none" xmlns="http://www.w3.org/2000/svg">
<circle cx="24" cy="24" r="24" fill="#7A9F5A"/>
<path d="M34.5059 16.1935H33.0078V14.6954C33.0078 13.5034 32.5343 12.3603 31.6914 11.5174C30.8486 10.6746 29.7054 10.2011 28.5135 10.2011H13.5324C12.3404 10.2011 11.1973 10.6746 10.3544 11.5174C9.51159 12.3603 9.03809 13.5034 9.03809 14.6954V32.6727C9.03809 33.8646 9.51159 35.0078 10.3544 35.8506C11.1973 36.6935 12.3404 37.167 13.5324 37.167H34.5059C35.6979 37.167 36.841 36.6935 37.6838 35.8506C38.5267 35.0078 39.0002 33.8646 39.0002 32.6727V20.6878C39.0002 19.4959 38.5267 18.3527 37.6838 17.5099C36.841 16.667 35.6979 16.1935 34.5059 16.1935ZM13.5324 13.1973H28.5135C28.9108 13.1973 29.2918 13.3551 29.5728 13.6361C29.8537 13.917 30.0116 14.2981 30.0116 14.6954V16.1935H13.5324C13.1351 16.1935 12.754 16.0357 12.4731 15.7547C12.1921 15.4738 12.0343 15.0927 12.0343 14.6954C12.0343 14.2981 12.1921 13.917 12.4731 13.6361C12.754 13.3551 13.1351 13.1973 13.5324 13.1973ZM36.004 28.1784H34.5059C34.1086 28.1784 33.7275 28.0205 33.4466 27.7396C33.1656 27.4586 33.0078 27.0776 33.0078 26.6802C33.0078 26.2829 33.1656 25.9019 33.4466 25.6209C33.7275 25.34 34.1086 25.1821 34.5059 25.1821H36.004V28.1784ZM36.004 22.1859H34.5059C33.3139 22.1859 32.1708 22.6594 31.3279 23.5023C30.4851 24.3451 30.0116 25.4883 30.0116 26.6802C30.0116 27.8722 30.4851 29.0154 31.3279 29.8582C32.1708 30.7011 33.3139 31.1746 34.5059 31.1746H36.004V32.6727C36.004 33.07 35.8462 33.451 35.5652 33.732C35.2843 34.0129 34.9032 34.1708 34.5059 34.1708H13.5324C13.1351 34.1708 12.754 34.0129 12.4731 33.732C12.1921 33.451 12.0343 33.07 12.0343 32.6727V18.935C12.5156 19.1043 13.0222 19.1905 13.5324 19.1897H34.5059C34.9032 19.1897 35.2843 19.3476 35.5652 19.6285C35.8462 19.9095 36.004 20.2905 36.004 20.6878V22.1859Z" fill="white"/>
</svg>
