<svg width="55" height="55" viewBox="0 0 55 55" fill="none" xmlns="http://www.w3.org/2000/svg">
<circle cx="27.5" cy="27.5" r="27.5" fill="#7A9F5A" fill-opacity="0.3"/>
<path d="M38.375 18.375L40.125 16.625C40.625 16.125 40.625 15.375 40.125 14.875C39.625 14.375 38.875 14.375 38.375 14.875L25.25 28C24.25 27.375 23 27 21.75 27C18.25 27 15.5 29.75 15.5 33.25C15.5 36.75 18.25 39.5 21.75 39.5C25.25 39.5 28 36.75 28 33.25C28 32 27.625 30.75 27 29.75L33.125 23.625L34.875 25.375C35.375 25.875 36.125 25.875 36.625 25.375C37.125 24.875 37.125 24.125 36.625 23.625L34.875 21.875L36.625 20.125L38.375 21.875C38.875 22.375 39.625 22.375 40.125 21.875C40.625 21.375 40.625 20.625 40.125 20.125L38.375 18.375ZM21.75 37C19.625 37 18 35.375 18 33.25C18 31.125 19.625 29.5 21.75 29.5C23.875 29.5 25.5 31.125 25.5 33.25C25.5 35.375 23.875 37 21.75 37Z" fill="#7A9F5A"/>
</svg>
