<svg width="643" height="643" viewBox="0 0 643 643" fill="none" xmlns="http://www.w3.org/2000/svg">
<path d="M320.278 625.06C487.617 625.06 623.273 546.739 623.273 450.126C623.273 353.512 487.617 275.191 320.278 275.191C152.939 275.191 17.2838 353.512 17.2838 450.126C17.2838 546.739 152.939 625.06 320.278 625.06Z" fill="#F0F0F0"/>
<path d="M494.287 510.825C474.418 499.354 474.418 480.758 494.287 469.287C514.156 457.816 546.37 457.816 566.239 469.287C586.107 480.758 586.107 499.354 566.239 510.825C546.37 522.296 514.156 522.296 494.287 510.825Z" fill="#E0E0E0"/>
<path d="M90.1743 512.42L37.9113 482.25C34.9663 480.553 34.9663 477.788 37.9113 476.09L341.909 300.577C343.561 299.74 345.387 299.303 347.239 299.303C349.091 299.303 350.918 299.74 352.57 300.577L404.846 330.746C407.791 332.444 407.791 335.209 404.846 336.906L100.848 512.42C99.1937 513.257 97.3655 513.693 95.5112 513.693C93.657 513.693 91.8287 513.257 90.1743 512.42Z" fill="#E0E0E0"/>
<path d="M278.033 458.639L322.966 432.662C327.596 429.987 329.91 426.489 329.91 422.978C329.91 419.467 329.91 416.728 329.91 416.728L283.306 390.442C282.004 389.601 280.92 388.463 280.142 387.122C279.364 385.781 278.915 384.274 278.831 382.726V327.313L200.385 372.657V428.045C200.475 429.592 200.927 431.095 201.704 432.436C202.481 433.776 203.562 434.915 204.86 435.761L244.52 458.6C253.754 463.989 268.774 463.989 278.033 458.639Z" fill="#7A9F5A"/>
<g opacity="0.6">
<path d="M278.033 458.639L322.966 432.662C327.596 429.987 329.91 426.489 329.91 422.978C329.91 419.467 329.91 416.728 329.91 416.728L283.306 390.442C282.004 389.601 280.92 388.463 280.142 387.122C279.364 385.781 278.915 384.274 278.831 382.726V327.313L200.385 372.657V428.045C200.475 429.592 200.927 431.095 201.704 432.436C202.481 433.776 203.562 434.915 204.86 435.761L244.52 458.6C253.754 463.989 268.774 463.989 278.033 458.639Z" fill="black"/>
</g>
<path opacity="0.3" d="M219.199 437.857V444.082L204.821 435.787C203.524 434.941 202.444 433.802 201.669 432.462C200.893 431.121 200.445 429.617 200.359 428.071V372.657L215.302 364.028C215.611 367.822 215.945 371.744 216.267 375.602L205.76 381.646V424.92C205.843 426.468 206.292 427.975 207.07 429.316C207.848 430.657 208.933 431.795 210.235 432.636L219.199 437.857Z" fill="black"/>
<path d="M205.76 424.933C205.848 426.48 206.299 427.985 207.077 429.325C207.854 430.665 208.936 431.804 210.235 432.649L244.469 452.376C253.728 457.713 268.748 457.726 278.02 452.376L323.03 426.399C332.302 421.049 332.302 412.382 323.03 407.032L288.771 387.305C287.475 386.458 286.397 385.318 285.621 383.978C284.846 382.638 284.397 381.134 284.309 379.589V336.302L205.863 381.646L205.76 424.933Z" fill="#7A9F5A"/>
<path opacity="0.3" d="M205.76 424.933C205.848 426.48 206.299 427.985 207.077 429.325C207.854 430.665 208.936 431.804 210.235 432.649L244.469 452.376C253.728 457.713 268.748 457.726 278.02 452.376L323.03 426.399C332.302 421.049 332.302 412.382 323.03 407.032L288.771 387.305C287.475 386.458 286.397 385.318 285.621 383.978C284.846 382.638 284.397 381.134 284.309 379.589V336.302L205.863 381.646L205.76 424.933Z" fill="black"/>
<path opacity="0.5" d="M297.838 392.59L288.72 387.33C287.424 386.483 286.345 385.344 285.57 384.004C284.795 382.663 284.345 381.16 284.257 379.614V336.302L205.811 381.646V424.933C205.9 426.48 206.351 427.985 207.128 429.325C207.906 430.665 208.988 431.804 210.287 432.649L219.289 437.793L297.838 392.59Z" fill="black"/>
<path d="M329.923 416.741V422.991C329.923 426.502 327.596 429.987 322.979 432.675L277.969 458.639C273.043 461.268 267.542 462.634 261.958 462.613V456.389C267.542 456.409 273.043 455.044 277.969 452.415L322.979 426.425C327.596 423.763 329.923 420.252 329.923 416.741Z" fill="#7A9F5A"/>
<path opacity="0.5" d="M329.923 416.741V422.991C329.923 426.502 327.596 429.987 322.979 432.675L277.969 458.639C273.043 461.268 267.542 462.634 261.958 462.613V456.389C267.542 456.409 273.043 455.044 277.969 452.415L322.979 426.425C327.596 423.763 329.923 420.252 329.923 416.741Z" fill="black"/>
<path d="M79.732 478.726C81.4279 479.545 83.2924 479.955 85.1755 479.921C87.0585 479.888 88.9073 479.412 90.573 478.533L394.069 303.316C395.696 302.255 397.051 300.825 398.023 299.142C398.995 297.46 399.557 295.572 399.663 293.632V48.1092C399.605 46.2219 399.102 44.3749 398.194 42.719C397.287 41.063 396.001 39.6448 394.442 38.58C392.748 37.76 390.885 37.3512 389.003 37.387C387.122 37.4227 385.275 37.902 383.614 38.7857L80.1178 214.055C78.4961 215.123 77.1499 216.559 76.1889 218.246C75.2279 219.934 74.6793 221.824 74.588 223.764V469.249C74.6454 471.12 75.1406 472.953 76.0339 474.599C76.9272 476.245 78.1937 477.658 79.732 478.726Z" fill="#7A9F5A"/>
<path d="M90.6116 478.521L394.108 303.303C395.737 302.244 397.093 300.815 398.065 299.132C399.037 297.449 399.598 295.56 399.702 293.62V48.1093C399.702 44.547 397.194 43.0939 394.108 44.8814L90.6116 220.099C88.9835 221.16 87.6285 222.589 86.6565 224.272C85.6845 225.954 85.123 227.842 85.0175 229.782V475.293C85.0175 478.855 87.5252 480.308 90.6116 478.521Z" fill="#7A9F5A"/>
<path opacity="0.5" d="M90.6116 478.521L394.108 303.303C395.737 302.244 397.093 300.815 398.065 299.132C399.037 297.449 399.598 295.56 399.702 293.62V48.1093C399.702 44.547 397.194 43.0939 394.108 44.8814L90.6116 220.099C88.9835 221.16 87.6285 222.589 86.6565 224.272C85.6845 225.954 85.123 227.842 85.0175 229.782V475.293C85.0175 478.855 87.5252 480.308 90.6116 478.521Z" fill="black"/>
<path d="M89.7885 484.899C88.197 485.594 86.4738 485.935 84.7377 485.9C83.0015 485.864 81.2937 485.453 79.732 484.693C78.1903 483.623 76.9216 482.205 76.0282 480.554C75.1347 478.904 74.6414 477.066 74.588 475.19V452.839L85.0689 458.909V481.26C85.0046 484.513 87.0751 485.992 89.7885 484.899Z" fill="#7A9F5A"/>
<path opacity="0.5" d="M89.7885 484.899C88.197 485.594 86.4738 485.935 84.7377 485.9C83.0015 485.864 81.2937 485.453 79.732 484.693C78.1903 483.623 76.9216 482.205 76.0282 480.554C75.1347 478.904 74.6414 477.066 74.588 475.19V452.839L85.0689 458.909V481.26C85.0046 484.513 87.0751 485.992 89.7885 484.899Z" fill="black"/>
<path d="M85.0046 458.909V481.26C85.0046 484.822 87.5766 486.262 90.5987 484.488L394.095 309.27C395.715 308.214 397.066 306.792 398.037 305.119C399.009 303.446 399.574 301.569 399.689 299.638V277.184L85.0046 458.909Z" fill="#7A9F5A"/>
<path opacity="0.3" d="M85.0175 458.858V481.26C85.0175 484.822 87.5895 486.262 90.6116 484.488L394.108 309.27C395.726 308.212 397.074 306.79 398.043 305.117C399.012 303.445 399.576 301.568 399.689 299.638V277.184L85.0175 458.858Z" fill="black"/>
<path d="M95.4984 430.81V233.268C95.5582 232.104 95.8923 230.971 96.4734 229.96C97.0544 228.95 97.866 228.092 98.842 227.455L385.8 61.728C387.652 60.6606 389.156 61.5222 389.156 63.657V261.302C389.094 262.467 388.758 263.601 388.174 264.611C387.591 265.621 386.778 266.479 385.8 267.115L98.8548 432.803C97.003 433.871 95.4984 432.996 95.4984 430.81Z" fill="#7A9F5A"/>
<path d="M95.4984 430.81V233.268C95.5582 232.104 95.8923 230.971 96.4734 229.96C97.0544 228.95 97.866 228.092 98.842 227.455L385.8 61.728C387.652 60.6606 389.156 61.5222 389.156 63.657V261.302C389.094 262.467 388.758 263.601 388.174 264.611C387.591 265.621 386.778 266.479 385.8 267.115L98.8548 432.803C97.003 433.871 95.4984 432.996 95.4984 430.81Z" fill="#263238"/>
<path d="M242.347 375.165C240.819 376.158 239.548 377.498 238.636 379.076C237.724 380.654 237.198 382.424 237.1 384.244C237.1 387.588 239.453 388.951 242.347 387.279C243.876 386.284 245.148 384.942 246.06 383.362C246.972 381.782 247.497 380.009 247.594 378.187C247.594 374.843 245.24 373.493 242.347 375.165Z" fill="#7A9F5A"/>
<path opacity="0.7" d="M86.6635 224.253C85.6669 225.928 85.0972 227.822 85.0046 229.77V458.909L74.588 452.839V223.764C74.6555 221.81 75.2222 219.907 76.2341 218.234L86.6635 224.253Z" fill="black"/>
<path opacity="0.3" d="M399.637 47.1833C399.239 44.3027 396.911 43.3253 394.095 44.8814L90.5987 220.099C88.9532 221.128 87.595 222.557 86.6507 224.253L76.1569 218.196C77.1075 216.5 78.4697 215.072 80.1178 214.042L383.614 38.8372C385.277 37.9533 387.126 37.474 389.01 37.4383C390.893 37.4025 392.759 37.8113 394.455 38.6314C395.88 39.6028 397.081 40.869 397.975 42.3444C398.869 43.8198 399.436 45.47 399.637 47.1833Z" fill="black"/>
<path d="M416.008 77.4043C415.557 77.1781 415.053 77.0789 414.55 77.1175C414.047 77.156 413.564 77.3307 413.153 77.623L126.787 243.054C125.657 243.801 124.719 244.805 124.048 245.982C123.378 247.159 122.995 248.478 122.929 249.831V446.165C122.889 446.828 123.02 447.49 123.311 448.087C123.601 448.684 124.041 449.195 124.588 449.573C125.218 449.92 128.587 451.875 129.59 452.415C129.945 452.596 130.342 452.679 130.739 452.656C131.137 452.634 131.521 452.506 131.854 452.286L418.156 286.855C419.286 286.108 420.224 285.105 420.894 283.927C421.564 282.75 421.948 281.431 422.014 280.078V82.7284C422.071 82.2297 421.989 81.7248 421.775 81.2705C421.561 80.8162 421.226 80.4304 420.805 80.1564C420.162 79.732 416.728 77.8287 416.008 77.4043Z" fill="#7A9F5A"/>
<path d="M131.789 245.832L418.169 80.465C420.329 79.179 422.027 80.2335 422.027 82.7284V280.078C421.961 281.431 421.577 282.75 420.907 283.927C420.237 285.105 419.299 286.108 418.169 286.855L131.789 452.286C129.629 453.572 127.931 451.502 127.931 449.007V252.609C127.999 251.256 128.384 249.938 129.054 248.761C129.724 247.584 130.661 246.581 131.789 245.832Z" fill="#FAFAFA"/>
<path d="M419.918 81.2109C420.676 81.2109 420.792 82.1625 420.792 82.7284V280.078C420.723 281.211 420.39 282.312 419.821 283.295C419.252 284.277 418.461 285.113 417.513 285.736L131.172 451.167C130.98 451.292 130.758 451.363 130.529 451.373C129.809 451.373 129.243 450.267 129.243 449.007V252.609C129.305 251.476 129.627 250.373 130.185 249.385C130.743 248.397 131.52 247.551 132.458 246.912L418.812 81.571C419.143 81.3572 419.524 81.2331 419.918 81.2109ZM419.918 79.9249C419.298 79.9513 418.695 80.1373 418.169 80.465L131.789 245.832C130.661 246.581 129.724 247.584 129.054 248.761C128.384 249.938 127.999 251.256 127.931 252.609V449.007C127.931 450.987 129.037 452.659 130.503 452.659C130.957 452.651 131.401 452.522 131.789 452.286L418.156 286.855C419.286 286.108 420.224 285.105 420.894 283.927C421.564 282.75 421.948 281.431 422.014 280.078V82.7284C422.014 80.9537 421.139 79.9249 419.853 79.9249H419.918Z" fill="#E0E0E0"/>
<path d="M124.511 449.573C124.935 449.791 127.983 451.527 129.32 452.299C128.84 451.901 128.46 451.395 128.209 450.824C127.959 450.252 127.846 449.63 127.88 449.007V265.43L122.864 262.498V446.165C122.823 446.826 122.953 447.488 123.241 448.085C123.529 448.681 123.966 449.194 124.511 449.573Z" fill="#F0F0F0"/>
<path d="M422.078 82.6898C422.078 80.2207 420.316 79.2176 418.22 80.465L131.789 245.832C130.661 246.581 129.724 247.584 129.054 248.761C128.384 249.938 127.999 251.256 127.931 252.609V265.469L422.078 95.5498V82.6898Z" fill="#7A9F5A"/>
<g opacity="0.4">
<path d="M418.169 80.465L131.789 245.819C130.64 246.544 129.693 247.548 129.037 248.738L124.06 245.845C124.715 244.696 125.654 243.735 126.787 243.054L413.153 77.623C413.563 77.3287 414.046 77.1516 414.549 77.1109C415.052 77.0701 415.556 77.1671 416.008 77.3915C416.703 77.8287 419.956 79.6677 420.792 80.1178C420.36 79.9574 419.895 79.9053 419.437 79.9658C418.98 80.0263 418.544 80.1977 418.169 80.465Z" fill="white"/>
</g>
<path opacity="0.15" d="M122.864 262.511V249.767C122.917 248.378 123.329 247.027 124.06 245.845L129.05 248.725C128.329 249.887 127.926 251.217 127.88 252.583V265.443L122.864 262.511Z" fill="black"/>
<path d="M361.688 230.734L190.174 329.756C189.34 330.297 188.645 331.028 188.147 331.888C187.648 332.749 187.36 333.714 187.306 334.707V383.884C187.36 384.877 187.648 385.843 188.147 386.703C188.645 387.563 189.34 388.294 190.174 388.835L195.176 391.716C196.065 392.165 197.048 392.4 198.044 392.4C199.04 392.4 200.023 392.165 200.912 391.716L372.4 292.694C373.234 292.15 373.929 291.417 374.427 290.554C374.925 289.692 375.213 288.724 375.268 287.73V238.54C375.213 237.547 374.925 236.581 374.427 235.721C373.928 234.861 373.234 234.13 372.4 233.589L367.384 230.708C366.499 230.266 365.523 230.038 364.533 230.042C363.543 230.047 362.569 230.284 361.688 230.734Z" fill="#7A9F5A"/>
<path opacity="0.5" d="M375.268 238.103C375.062 236.624 373.866 236.084 372.426 236.92L200.912 335.942C200.066 336.467 199.37 337.203 198.893 338.077L188.155 331.878C188.636 331.018 189.326 330.293 190.161 329.769L361.687 230.747C362.574 230.296 363.554 230.061 364.549 230.061C365.543 230.061 366.524 230.296 367.41 230.747L372.426 233.628C373.19 234.129 373.839 234.787 374.329 235.559C374.819 236.33 375.139 237.198 375.268 238.103Z" fill="white"/>
<path d="M200.423 391.96C199.583 392.291 198.683 392.441 197.781 392.401C196.88 392.362 195.996 392.132 195.189 391.728L190.174 388.848C189.341 388.305 188.648 387.574 188.149 386.714C187.651 385.854 187.362 384.889 187.306 383.897V334.72C187.345 333.716 187.637 332.739 188.155 331.878L198.893 338.077C198.371 338.926 198.078 339.896 198.044 340.893V390.082C198.044 391.716 199.073 392.474 200.423 391.96Z" fill="#263238"/>
<path d="M200.912 335.942L372.426 236.92C374.007 236.007 375.293 236.74 375.293 238.566V287.755C375.239 288.75 374.951 289.718 374.453 290.58C373.954 291.442 373.26 292.175 372.426 292.719L200.938 391.741C199.356 392.654 198.07 391.908 198.07 390.082V340.906C198.121 339.913 198.405 338.947 198.899 338.085C199.393 337.223 200.082 336.489 200.912 335.942Z" fill="#7A9F5A"/>
<path d="M316.215 256.994L190.187 329.769C189.352 330.293 188.662 331.018 188.18 331.878L198.918 338.077C199.396 337.203 200.092 336.467 200.938 335.942L326.966 263.18L316.215 256.994Z" fill="#455A64"/>
<path d="M326.94 263.18L200.912 335.942C200.077 336.486 199.383 337.219 198.885 338.081C198.387 338.944 198.099 339.911 198.044 340.906V390.07C198.044 391.896 199.33 392.641 200.912 391.728L326.94 318.967V263.18Z" fill="#37474F"/>
<path d="M229.975 329.949L295.008 292.411C297.696 290.855 299.882 291.961 299.882 294.88C299.762 296.519 299.257 298.107 298.408 299.515C297.559 300.923 296.39 302.11 294.996 302.982L229.975 340.533C227.288 342.089 225.089 340.983 225.089 338.064C225.21 336.423 225.715 334.833 226.564 333.424C227.413 332.014 228.582 330.824 229.975 329.949Z" fill="#7A9F5A"/>
<path d="M243.298 342.385C243.31 342.371 243.325 342.36 243.342 342.352C243.359 342.345 243.377 342.341 243.395 342.341C243.413 342.341 243.431 342.345 243.448 342.352C243.464 342.36 243.479 342.371 243.491 342.385C243.549 342.472 243.576 342.576 243.568 342.68V349.998C243.569 350.705 243.509 351.41 243.388 352.107C243.282 352.743 243.101 353.365 242.848 353.959C242.618 354.503 242.315 355.013 241.948 355.476C241.586 355.906 241.151 356.267 240.662 356.543C240.279 356.793 239.833 356.927 239.376 356.929C239.201 356.915 239.032 356.866 238.877 356.784C238.722 356.702 238.586 356.59 238.476 356.453C238.194 356.075 238.008 355.634 237.936 355.167C237.813 354.545 237.757 353.911 237.769 353.277V345.947C237.768 345.819 237.794 345.692 237.846 345.574C237.877 345.468 237.946 345.377 238.039 345.317L238.849 344.841C238.875 344.816 238.909 344.803 238.945 344.803C238.981 344.803 239.015 344.816 239.042 344.841C239.101 344.927 239.128 345.032 239.119 345.137V352.364C239.109 352.762 239.148 353.159 239.235 353.547C239.27 353.795 239.377 354.028 239.543 354.216C239.601 354.285 239.674 354.339 239.757 354.375C239.839 354.411 239.929 354.427 240.019 354.422C240.239 354.407 240.452 354.336 240.636 354.216C240.865 354.079 241.073 353.91 241.254 353.714C241.454 353.483 241.619 353.223 241.742 352.943C241.887 352.613 241.995 352.268 242.064 351.914C242.139 351.489 242.173 351.059 242.167 350.628V343.388C242.171 343.259 242.201 343.132 242.257 343.015C242.288 342.909 242.357 342.818 242.45 342.758L243.298 342.385Z" fill="#FAFAFA"/>
<path d="M248.339 349.303C248.346 349.209 248.324 349.115 248.275 349.033C248.245 349 248.206 348.974 248.164 348.958C248.121 348.943 248.076 348.938 248.031 348.943C247.873 348.922 247.713 348.922 247.555 348.943L246.809 349.085C246.568 349.145 246.317 349.145 246.076 349.085C245.887 349.024 245.724 348.902 245.613 348.737C245.487 348.529 245.404 348.297 245.369 348.056C245.243 347.367 245.243 346.661 245.369 345.973C245.465 345.578 245.603 345.194 245.78 344.828C245.956 344.463 246.172 344.118 246.423 343.799C246.667 343.496 246.963 343.239 247.298 343.04C247.568 342.876 247.871 342.77 248.185 342.732C248.413 342.708 248.643 342.758 248.841 342.873C249.03 342.988 249.178 343.159 249.265 343.362C249.369 343.602 249.426 343.859 249.433 344.121C249.446 344.25 249.419 344.38 249.355 344.494C249.324 344.6 249.255 344.691 249.162 344.751L248.391 345.201C248.356 345.221 248.316 345.232 248.275 345.232C248.235 345.232 248.195 345.221 248.159 345.201L247.992 345.072C247.926 345.02 247.845 344.989 247.761 344.982C247.595 345.001 247.437 345.058 247.298 345.15C247.096 345.271 246.917 345.428 246.771 345.612C246.615 345.815 246.533 346.065 246.539 346.32C246.521 346.418 246.521 346.518 246.539 346.616C246.564 346.652 246.596 346.682 246.634 346.705C246.672 346.727 246.714 346.74 246.758 346.744C246.898 346.768 247.042 346.768 247.182 346.744L247.902 346.616C248.507 346.5 248.918 346.616 249.188 346.95C249.472 347.426 249.602 347.979 249.561 348.532C249.558 348.914 249.506 349.294 249.407 349.663C249.305 350.064 249.158 350.453 248.97 350.821C248.781 351.202 248.543 351.556 248.262 351.875C247.996 352.188 247.678 352.453 247.324 352.66C247.041 352.841 246.719 352.951 246.385 352.981C246.143 352.99 245.905 352.922 245.703 352.788C245.505 352.653 245.352 352.46 245.266 352.235C245.162 351.992 245.109 351.729 245.112 351.464C245.1 351.33 245.126 351.196 245.189 351.078C245.22 350.972 245.289 350.881 245.382 350.821L246.153 350.371C246.256 350.371 246.333 350.306 246.385 350.371L246.552 350.551C246.586 350.589 246.628 350.62 246.674 350.642C246.72 350.664 246.771 350.677 246.822 350.679C247.003 350.68 247.179 350.622 247.324 350.512C247.556 350.38 247.764 350.211 247.941 350.011C248.028 349.905 248.102 349.788 248.159 349.663C248.25 349.561 248.312 349.437 248.339 349.303Z" fill="#FAFAFA"/>
<path d="M250.963 345.818C250.961 345.15 251.016 344.483 251.13 343.825C251.237 343.206 251.405 342.598 251.632 342.012C251.821 341.486 252.08 340.989 252.403 340.533C252.673 340.141 253.024 339.812 253.432 339.568C253.73 339.368 254.094 339.29 254.448 339.35C254.762 339.422 255.038 339.611 255.22 339.877C255.462 340.226 255.632 340.619 255.721 341.034C255.844 341.574 255.905 342.127 255.901 342.68V343.478C255.905 343.612 255.874 343.745 255.811 343.864C255.78 343.97 255.711 344.061 255.618 344.121L252.275 346.063C252.267 346.289 252.297 346.515 252.365 346.731C252.414 346.877 252.503 347.006 252.622 347.104C252.727 347.188 252.86 347.229 252.995 347.22C253.15 347.202 253.3 347.149 253.432 347.066C253.627 346.96 253.801 346.821 253.946 346.654C254.078 346.506 254.19 346.342 254.281 346.165C254.336 346.064 254.396 345.965 254.461 345.87C254.516 345.804 254.581 345.748 254.654 345.703L255.451 345.24C255.478 345.218 255.512 345.206 255.547 345.206C255.583 345.206 255.617 345.218 255.644 345.24C255.678 345.28 255.702 345.328 255.715 345.379C255.729 345.43 255.731 345.483 255.721 345.535C255.707 345.786 255.655 346.033 255.567 346.268C255.456 346.625 255.309 346.97 255.13 347.297C254.928 347.674 254.687 348.027 254.409 348.352C254.133 348.683 253.802 348.966 253.432 349.188C253.128 349.387 252.764 349.473 252.403 349.432C252.087 349.356 251.811 349.163 251.632 348.892C251.378 348.502 251.208 348.064 251.13 347.606C251.013 347.017 250.957 346.418 250.963 345.818ZM253.432 341.716C253.234 341.822 253.063 341.972 252.93 342.153C252.788 342.333 252.671 342.532 252.583 342.745C252.493 342.957 252.42 343.177 252.365 343.401C252.319 343.604 252.289 343.81 252.275 344.018L254.538 342.732C254.525 342.554 254.499 342.378 254.461 342.205C254.441 342.049 254.379 341.902 254.281 341.78C254.242 341.725 254.193 341.678 254.135 341.642C254.078 341.607 254.013 341.584 253.946 341.574C253.764 341.559 253.581 341.609 253.432 341.716Z" fill="#FAFAFA"/>
<path d="M259.939 338.128C259.549 338.35 259.243 338.693 259.065 339.105C258.865 339.648 258.773 340.225 258.795 340.803V345.445C258.796 345.578 258.77 345.709 258.717 345.831C258.686 345.937 258.618 346.028 258.525 346.088L257.766 346.526C257.754 346.539 257.739 346.55 257.722 346.558C257.706 346.565 257.688 346.569 257.669 346.569C257.651 346.569 257.633 346.565 257.616 346.558C257.6 346.55 257.585 346.539 257.573 346.526C257.515 346.438 257.488 346.334 257.496 346.23V337.909C257.496 337.777 257.523 337.646 257.573 337.524C257.609 337.42 257.676 337.33 257.766 337.266L258.525 336.829C258.551 336.805 258.585 336.791 258.621 336.791C258.657 336.791 258.691 336.805 258.717 336.829C258.777 336.911 258.805 337.011 258.795 337.112V337.524C258.948 337.179 259.138 336.851 259.36 336.546C259.564 336.265 259.827 336.032 260.132 335.865L260.595 335.595C260.619 335.571 260.651 335.558 260.685 335.558C260.719 335.558 260.751 335.571 260.775 335.595C260.837 335.68 260.869 335.784 260.865 335.89V337.061C260.863 337.194 260.832 337.326 260.775 337.446C260.743 337.548 260.68 337.638 260.595 337.704L259.939 338.128Z" fill="#FAFAFA"/>
<path d="M269.533 337.511C269.545 337.497 269.56 337.486 269.576 337.479C269.593 337.471 269.611 337.467 269.629 337.467C269.647 337.467 269.665 337.471 269.682 337.479C269.699 337.486 269.714 337.497 269.726 337.511C269.783 337.598 269.81 337.702 269.803 337.806V339.092C269.802 339.225 269.776 339.356 269.726 339.478C269.681 339.574 269.615 339.658 269.533 339.723L265.135 342.295C265.108 342.319 265.074 342.333 265.038 342.333C265.002 342.333 264.968 342.319 264.942 342.295C264.884 342.212 264.857 342.112 264.865 342.012V330.438C264.865 330.305 264.891 330.174 264.942 330.052C264.978 329.952 265.045 329.866 265.135 329.808L265.945 329.332C265.971 329.307 266.005 329.294 266.041 329.294C266.077 329.294 266.112 329.307 266.138 329.332C266.195 329.414 266.222 329.514 266.215 329.615V339.401L269.533 337.511Z" fill="#FAFAFA"/>
<path d="M273.481 327.994C273.77 327.794 274.12 327.699 274.471 327.724C274.772 327.748 275.053 327.886 275.255 328.11C275.495 328.385 275.671 328.71 275.77 329.062C275.907 329.517 275.985 329.988 276.001 330.463C276.001 330.566 276.001 330.708 276.001 330.875V331.865C276.001 332.019 276.001 332.161 276.001 332.277C275.976 332.836 275.898 333.391 275.77 333.936C275.651 334.466 275.479 334.983 275.255 335.479C275.052 335.94 274.788 336.373 274.471 336.765C274.2 337.12 273.864 337.421 273.481 337.652C273.183 337.846 272.832 337.94 272.478 337.922C272.181 337.897 271.905 337.759 271.706 337.536C271.459 337.271 271.283 336.948 271.192 336.598C271.054 336.142 270.976 335.671 270.96 335.196C270.96 335.093 270.96 334.964 270.96 334.797V333.807C270.96 333.64 270.96 333.498 270.96 333.396C270.975 332.832 271.048 332.272 271.179 331.724C271.304 331.189 271.481 330.668 271.706 330.168C271.91 329.709 272.169 329.278 272.478 328.882C272.75 328.523 273.091 328.221 273.481 327.994ZM274.69 331.312C274.689 331.028 274.641 330.745 274.548 330.476C274.5 330.312 274.401 330.168 274.265 330.065C274.156 329.991 274.023 329.959 273.892 329.975C273.745 330.002 273.605 330.059 273.481 330.142C273.33 330.225 273.191 330.329 273.069 330.451C272.922 330.604 272.796 330.777 272.696 330.965C272.567 331.199 272.472 331.45 272.413 331.711C272.329 332.039 272.277 332.375 272.259 332.714C272.259 332.817 272.259 332.933 272.259 333.074V333.987C272.259 334.129 272.259 334.244 272.259 334.321C272.271 334.606 272.323 334.887 272.413 335.157C272.46 335.322 272.56 335.466 272.696 335.569C272.75 335.607 272.811 335.633 272.875 335.646C272.939 335.66 273.005 335.66 273.069 335.646C273.215 335.621 273.355 335.569 273.481 335.492C273.63 335.406 273.768 335.302 273.892 335.183C274.036 335.026 274.161 334.854 274.265 334.669C274.389 334.432 274.484 334.182 274.548 333.923C274.632 333.595 274.68 333.258 274.69 332.92C274.697 332.8 274.697 332.68 274.69 332.56V331.659C274.697 331.544 274.697 331.428 274.69 331.312Z" fill="#FAFAFA"/>
<path d="M279.936 335.517C280.101 335.417 280.249 335.291 280.374 335.144C280.529 334.963 280.662 334.765 280.772 334.553C280.9 334.294 280.999 334.023 281.068 333.743C281.147 333.427 281.186 333.103 281.184 332.778V332.122C281.184 332.251 281.055 332.405 280.965 332.585C280.877 332.773 280.774 332.954 280.657 333.125C280.522 333.306 280.376 333.478 280.219 333.64C280.058 333.809 279.872 333.952 279.666 334.064C279.534 334.154 279.385 334.217 279.228 334.248C279.071 334.279 278.91 334.278 278.753 334.244C278.468 334.155 278.222 333.968 278.059 333.717C277.849 333.385 277.697 333.02 277.609 332.637C277.499 332.151 277.439 331.656 277.429 331.158C277.429 330.991 277.429 330.785 277.429 330.541C277.429 330.296 277.429 330.09 277.429 329.91C277.445 329.345 277.505 328.782 277.609 328.226C277.714 327.678 277.865 327.141 278.059 326.618C278.241 326.165 278.474 325.733 278.753 325.332C278.99 324.978 279.302 324.679 279.666 324.458C279.837 324.355 280.024 324.281 280.219 324.239C280.364 324.212 280.512 324.212 280.657 324.239C280.771 324.271 280.876 324.328 280.965 324.406C281.047 324.469 281.121 324.543 281.184 324.625V324.213C281.185 324.081 281.211 323.95 281.261 323.828C281.297 323.727 281.365 323.642 281.454 323.583L282.213 323.133C282.239 323.109 282.273 323.095 282.309 323.095C282.345 323.095 282.379 323.109 282.406 323.133C282.468 323.219 282.499 323.323 282.496 323.429V331.788C282.53 333.04 282.298 334.285 281.814 335.44C281.434 336.349 280.777 337.114 279.936 337.626C279.65 337.805 279.322 337.906 278.985 337.922C278.718 337.938 278.453 337.871 278.226 337.729C278.009 337.567 277.833 337.355 277.712 337.112C277.586 336.819 277.517 336.505 277.506 336.186C277.494 336.053 277.521 335.919 277.583 335.8C277.615 335.694 277.683 335.603 277.776 335.543L278.458 335.157C278.473 335.141 278.492 335.127 278.513 335.118C278.534 335.109 278.557 335.104 278.58 335.104C278.603 335.104 278.625 335.109 278.646 335.118C278.667 335.127 278.686 335.141 278.702 335.157C278.765 335.224 278.821 335.297 278.869 335.376C278.947 335.514 279.077 335.615 279.229 335.659C279.384 335.775 279.615 335.646 279.936 335.517ZM278.728 329.28C278.728 329.623 278.728 329.958 278.728 330.283C278.691 330.797 278.837 331.307 279.139 331.724C279.254 331.822 279.4 331.877 279.551 331.877C279.702 331.877 279.848 331.822 279.962 331.724C280.335 331.481 280.627 331.131 280.798 330.721C281.032 330.184 281.163 329.608 281.184 329.023C281.184 328.83 281.184 328.599 281.184 328.329C281.184 328.059 281.184 327.827 281.184 327.66C281.21 327.199 281.074 326.744 280.798 326.374C280.684 326.269 280.535 326.211 280.38 326.211C280.225 326.211 280.076 326.269 279.962 326.374C279.596 326.616 279.31 326.96 279.139 327.364C278.875 327.969 278.735 328.62 278.728 329.28Z" fill="#FAFAFA"/>
<path d="M285.492 317.861C285.517 317.84 285.549 317.828 285.582 317.828C285.615 317.828 285.647 317.84 285.672 317.861C285.739 317.944 285.772 318.05 285.762 318.156V319.558C285.763 319.692 285.732 319.824 285.672 319.944C285.636 320.041 285.574 320.125 285.492 320.188L284.63 320.69C284.618 320.703 284.603 320.714 284.587 320.722C284.57 320.729 284.552 320.733 284.534 320.733C284.516 320.733 284.498 320.729 284.481 320.722C284.464 320.714 284.45 320.703 284.437 320.69C284.404 320.651 284.379 320.606 284.363 320.558C284.348 320.509 284.342 320.458 284.347 320.407V319.005C284.347 318.871 284.377 318.739 284.437 318.619C284.473 318.519 284.541 318.433 284.63 318.375L285.492 317.861ZM285.711 329.936C285.711 330.064 285.685 330.191 285.633 330.309C285.592 330.41 285.526 330.499 285.441 330.566L284.669 331.004C284.658 331.017 284.644 331.028 284.629 331.035C284.613 331.043 284.596 331.047 284.579 331.047C284.562 331.047 284.545 331.043 284.529 331.035C284.513 331.028 284.5 331.017 284.489 331.004C284.422 330.92 284.389 330.814 284.399 330.708V322.387C284.398 322.253 284.429 322.121 284.489 322.002C284.525 321.901 284.587 321.813 284.669 321.744L285.441 321.307C285.467 321.283 285.501 321.269 285.537 321.269C285.573 321.269 285.607 321.283 285.633 321.307C285.691 321.39 285.718 321.49 285.711 321.59V329.936Z" fill="#FAFAFA"/>
<path d="M292.475 326.014C292.474 326.146 292.448 326.277 292.398 326.4C292.362 326.5 292.294 326.586 292.205 326.644L291.433 327.094C291.409 327.118 291.377 327.131 291.343 327.131C291.31 327.131 291.277 327.118 291.253 327.094C291.186 327.011 291.154 326.905 291.163 326.798V322.272C291.203 321.737 291.105 321.202 290.88 320.716C290.7 320.394 290.417 320.343 290.019 320.574C289.621 320.841 289.326 321.236 289.183 321.693C288.968 322.3 288.864 322.94 288.874 323.583V328.123C288.874 328.255 288.847 328.386 288.797 328.509C288.766 328.615 288.697 328.706 288.604 328.766L287.845 329.203C287.833 329.217 287.818 329.228 287.802 329.235C287.785 329.243 287.767 329.247 287.749 329.247C287.731 329.247 287.713 329.243 287.696 329.235C287.679 329.228 287.665 329.217 287.652 329.203C287.593 329.122 287.565 329.021 287.575 328.92V320.6C287.573 320.467 287.6 320.336 287.652 320.214C287.684 320.108 287.752 320.017 287.845 319.957L288.604 319.52C288.616 319.506 288.631 319.495 288.648 319.487C288.664 319.48 288.682 319.476 288.701 319.476C288.719 319.476 288.737 319.48 288.753 319.487C288.77 319.495 288.785 319.506 288.797 319.52C288.855 319.607 288.882 319.711 288.874 319.815V320.214C289.043 319.822 289.25 319.447 289.491 319.095C289.703 318.77 289.99 318.501 290.327 318.311C290.62 318.097 290.984 318.005 291.343 318.054C291.486 318.089 291.619 318.155 291.734 318.246C291.849 318.337 291.944 318.451 292.012 318.581C292.199 318.929 292.321 319.308 292.372 319.7C292.441 320.211 292.475 320.727 292.475 321.243V326.014Z" fill="#FAFAFA"/>
<path d="M357.341 288.578L344.854 295.78L346.796 278.265C345.291 277.467 344.339 275.526 344.339 272.735C344.339 267.758 347.374 261.984 351.104 259.875C354.833 257.766 357.855 260.003 357.855 265.019C357.778 267.97 356.936 270.85 355.412 273.378L357.341 288.578Z" fill="#455A64"/>
<path d="M357.354 288.578L346.358 282.238L344.854 295.793L357.354 288.578Z" fill="#37474F"/>
<path d="M351.078 259.836C348.359 261.674 346.331 264.367 345.317 267.488L355.386 273.301C356.91 270.773 357.752 267.893 357.83 264.942C357.855 259.965 354.833 257.689 351.078 259.836Z" fill="#37474F"/>
<path d="M290.379 201.516C286.096 199.047 280.194 199.394 273.661 203.162C260.621 210.698 250.05 228.998 250.05 244.057C250.05 251.619 252.725 256.917 257.02 259.36L265.34 264.196C269.61 266.665 275.513 266.305 282.058 262.537C295.098 255.014 305.669 236.701 305.669 221.642C305.669 214.119 303.02 208.782 298.751 206.377" fill="#7A9F5A"/>
<path d="M282.046 208.011C269.005 215.546 258.435 233.859 258.435 248.905C258.435 263.952 269.005 270.073 282.046 262.537C295.086 255.001 305.669 236.701 305.656 221.642C305.644 206.583 295.073 200.487 282.046 208.011Z" fill="#7A9F5A"/>
<path d="M295.073 241.421V243.144C291.949 248.72 287.468 253.418 282.046 256.801C276.966 259.721 272.375 260.042 269.005 258.177V254.628C269.178 250.935 270.232 247.338 272.08 244.136C273.928 240.934 276.516 238.222 279.628 236.225L283.061 234.245C286.096 232.496 289.054 232.264 291.369 233.615C293.684 234.965 295.073 237.807 295.073 241.421Z" fill="#7A9F5A"/>
<path opacity="0.4" d="M290.379 201.516L298.738 206.377C294.468 203.895 288.566 204.243 282.02 208.011C273.481 212.949 265.996 222.504 261.855 232.74L253.483 227.892C257.637 217.604 265.057 208.101 273.648 203.162C280.207 199.407 286.109 199.047 290.379 201.516Z" fill="white"/>
<path opacity="0.2" d="M265.045 264.003L257.033 259.36C252.738 256.917 250.063 251.644 250.063 244.057L258.435 248.918C258.486 256.248 260.955 261.47 265.045 264.003Z" fill="black"/>
<path opacity="0.1" d="M253.509 227.892L261.881 232.74C259.736 237.865 258.584 243.351 258.486 248.905L250.114 244.044C250.217 238.494 251.369 233.014 253.509 227.892Z" fill="black"/>
<path d="M279.062 233.435C278.264 233.443 277.478 233.239 276.786 232.843C275.951 232.287 275.282 231.515 274.85 230.609C274.417 229.704 274.238 228.698 274.33 227.699C274.439 225.356 275.107 223.073 276.28 221.042C277.452 219.01 279.094 217.289 281.068 216.022C281.861 215.389 282.827 215.01 283.839 214.935C284.85 214.859 285.862 215.091 286.74 215.6C287.618 216.108 288.322 216.87 288.76 217.785C289.198 218.7 289.35 219.726 289.196 220.729C289.084 223.072 288.415 225.354 287.243 227.385C286.07 229.416 284.43 231.138 282.457 232.406C281.436 233.043 280.265 233.398 279.062 233.435Z" fill="white"/>
<path d="M291.369 233.602C289.054 232.252 286.096 232.483 283.061 234.232L279.628 236.212C276.515 238.21 273.926 240.925 272.077 244.129C270.229 247.333 269.176 250.933 269.005 254.628V258.19C272.375 260.055 276.966 259.733 282.046 256.814C287.468 253.431 291.949 248.733 295.073 243.157V241.434C295.073 237.807 293.735 234.965 291.369 233.602Z" fill="white"/>
<path d="M511.018 290.932C505.617 300.062 500.421 307.997 496.769 311.804C489.837 315.019 473.557 319.983 467.191 320.806C466.073 320.948 464.941 320.683 464.002 320.06C461.494 318.414 459.552 318.144 456.916 317.23C454.845 316.523 453.971 315.533 453.585 315.944C453.186 316.412 452.986 317.016 453.027 317.629C453.068 318.241 453.347 318.814 453.804 319.224C454.793 320.164 455.889 320.984 457.07 321.667C454.246 322.368 451.301 322.42 448.454 321.821C442.937 320.368 440.339 323.017 444.069 329.01C445.355 331.145 450.653 334.579 461.301 333.653C465.1 333.448 468.883 333.018 472.631 332.367C482.842 330.181 494.197 328.071 501.18 325.937C503.778 324.915 506.102 323.304 507.97 321.23C519.711 307.843 523.608 298.301 528.752 289.633L528.315 275.487C519.981 275.204 515.532 283.293 511.018 290.932Z" fill="#FFA8A7"/>
<path d="M529.742 275.204C527.326 274.864 524.862 275.192 522.618 276.15C520.375 277.109 518.435 278.663 517.011 280.644C511.301 287.961 501.193 305.528 501.193 305.528C501.193 305.528 504.498 314.337 513.423 315.816L527.762 296.449C527.762 296.449 534.552 282.997 529.742 275.204Z" fill="#455A64"/>
<path d="M560.747 472.656H551.398V489.323H560.747V472.656Z" fill="#FFA8A7"/>
<path d="M528.34 471.769L519.004 472.103L518.528 454.46L528.34 454.125V471.769Z" fill="#FFA8A7"/>
<path d="M562.059 328.38C562.059 337.665 560.696 412.472 560.696 412.472C560.902 415.146 563.268 420.085 562.792 430.36C562.085 444.313 561.146 480.99 561.146 480.99C559.541 481.811 557.77 482.256 555.968 482.292C554.165 482.328 552.378 481.953 550.742 481.195C550.742 481.195 543.155 429.755 541.483 415.982C540.017 403.907 536.262 363.938 536.262 363.938L531.208 411.186C532.279 416.255 532.669 421.445 532.365 426.618C531.928 433.048 528.919 466.329 528.919 466.329C527.304 467.282 525.493 467.855 523.623 468.004C521.754 468.153 519.875 467.875 518.129 467.191C518.129 467.191 512.805 417.037 512.702 411.147C512.574 404.46 515.815 328.303 515.815 328.303L562.059 328.38Z" fill="#37474F"/>
<path d="M551.398 484.513V483.124C550.498 483.523 548.428 491.779 544.711 495.303C541.766 498.106 537.754 501.334 536.725 504.459C535.696 507.584 542.319 509.5 545.084 508.999C548.273 508.407 553.829 506.054 555.218 503.855C556.607 501.656 557.262 498.466 558.394 496.872C559.526 495.277 562.136 493.502 562.741 491.651C562.929 489.918 562.75 488.165 562.213 486.507C561.776 484.783 561.313 482.893 560.747 483.06V484.115C559.429 485.197 557.772 485.779 556.066 485.761C554.703 485.877 551.385 485.594 551.398 484.513Z" fill="#263238"/>
<path d="M518.901 469.094C518.412 469.094 518.014 469.827 516.946 471.036C515.359 472.706 513.503 474.097 511.455 475.151C507.957 476.977 501.167 479.781 498.068 481.234C496.139 482.134 496.229 484.552 498.222 485.928C500.215 487.304 505.012 488.294 510.773 486.957C513.911 486.224 518.001 483.202 520.599 483.369C523.196 483.536 528.019 483.485 529.935 482.083C531.851 480.681 531.079 477.775 530.539 475.267C529.948 472.515 529.253 468.233 528.34 468.426V469.39C527.221 471.165 521.422 471.885 518.952 470.586L518.901 469.094Z" fill="#263238"/>
<path d="M536.262 363.938C531.399 362.346 526.952 359.688 523.248 356.158C523.248 356.158 525.82 361.057 533.227 365.623L531.632 407.816L536.262 363.938Z" fill="#263238"/>
<path d="M556.838 276.567C556.838 276.567 564.554 278.342 564.001 292.282L562.394 314.466V347.773C555.526 355.566 525.1 355 514.619 347.156C514.619 347.156 515.802 307.74 516.509 292.565C517.011 281.788 519.493 276.361 530.089 275.178L543.116 275.744L556.838 276.567Z" fill="#7A9F5A"/>
<path d="M547.013 247.606C547.057 249.473 546.732 251.329 546.055 253.069C545.379 254.809 544.365 256.398 543.071 257.744C541.778 259.09 540.23 260.167 538.519 260.912C536.807 261.658 534.965 262.057 533.098 262.087C525.382 262.087 520.856 255.425 519.184 247.606C516.098 233.293 525.408 233.113 533.098 233.113C536.865 233.191 540.447 234.761 543.056 237.479C545.666 240.197 547.089 243.84 547.013 247.606Z" fill="#263238"/>
<path d="M554.112 253.458C554.112 253.458 551.977 263.9 551.115 265.623C550.573 266.66 549.652 267.448 548.543 267.822L548.698 260.479L554.112 253.458Z" fill="#263238"/>
<path d="M551.424 238.502C551.424 238.502 552.954 238.116 554.587 240.662C555.976 242.835 556.298 247.722 554.112 253.522L550.086 254.011L551.424 238.502Z" fill="#263238"/>
<path d="M552.903 240.623L557.841 240.713C557.875 240.394 557.842 240.072 557.745 239.766C557.649 239.46 557.489 239.177 557.278 238.935C557.067 238.694 556.808 238.499 556.517 238.362C556.227 238.225 555.911 238.15 555.591 238.141C554.915 238.151 554.268 238.41 553.772 238.868C553.276 239.326 552.966 239.951 552.903 240.623Z" fill="#263238"/>
<path d="M553.507 239.453L557.16 235.942C556.949 235.694 556.689 235.493 556.397 235.35C556.105 235.207 555.786 235.126 555.461 235.113C555.136 235.1 554.811 235.154 554.508 235.273C554.205 235.391 553.93 235.571 553.7 235.801C553.216 236.275 552.927 236.913 552.891 237.589C552.856 238.266 553.075 238.931 553.507 239.453Z" fill="#263238"/>
<path d="M548.878 253.946C549.688 254.448 550.832 252.84 551.835 251.747C552.839 250.654 555.951 249.651 557.571 253.201C559.191 256.75 556.426 260.261 554.112 261.418C549.958 263.476 548.646 260.479 548.646 260.479L548.299 277.017C542.46 286.019 529.215 285.736 533.986 276.58V271.552C532.023 271.878 530.03 271.982 528.044 271.86C524.804 271.346 522.772 268.684 521.782 265.032C520.213 259.168 519.608 254.435 520.946 242.9C522.412 230.271 536.532 230.13 544.094 235.184C551.655 240.238 548.878 253.946 548.878 253.946Z" fill="#FFA8A7"/>
<path d="M531.285 240.932C534.654 240.598 537.985 239.903 541.367 239.646C542.097 239.558 542.836 239.592 543.554 239.749C546.126 240.456 545.817 243.466 546.228 245.562C546.936 249.188 547.514 255.322 548.878 255.348C549.289 255.348 550.832 252.686 551.835 251.735C552.387 250.915 552.699 249.957 552.736 248.97C552.993 247.478 553.121 245.948 553.237 244.43C553.34 243.144 553.469 241.858 553.469 240.572C553.527 239.119 553.411 237.664 553.121 236.238C552.799 235.026 552.18 233.912 551.321 232.997L551.064 232.715C549.369 230.942 547.312 229.556 545.033 228.651C541.754 227.422 538.315 226.673 534.822 226.426C531.334 226.179 527.861 225.75 524.418 225.14C524.221 225.083 524.011 225.083 523.814 225.14C523.674 225.217 523.556 225.329 523.471 225.463C523.385 225.598 523.335 225.752 523.325 225.912C523.184 226.711 523.272 227.534 523.579 228.285C523.886 229.036 524.4 229.684 525.061 230.155C522.733 230.335 520.058 229.127 517.821 228.509C517.64 228.433 517.445 228.393 517.248 228.393C517.052 228.393 516.857 228.433 516.676 228.509C516.452 228.666 516.292 228.899 516.226 229.165C516.063 229.769 516.041 230.403 516.162 231.017C516.367 232.878 517.059 234.653 518.168 236.161C519.901 238.418 522.35 240.018 525.112 240.701C527.146 241.093 529.228 241.171 531.285 240.932Z" fill="#263238"/>
<path d="M533.999 271.552C533.999 271.552 541.226 270.034 543.747 268.633C545.248 267.811 546.467 266.556 547.244 265.032C546.865 266.563 546.188 268.005 545.251 269.276C543.412 271.745 533.999 273.545 533.999 273.545V271.552Z" fill="#F28F8F"/>
<path d="M535.735 252.056C535.721 252.453 535.864 252.839 536.134 253.131C536.404 253.422 536.778 253.595 537.175 253.612C537.49 253.638 537.806 253.568 538.08 253.412C538.355 253.255 538.576 253.019 538.714 252.735C538.853 252.451 538.902 252.132 538.856 251.819C538.809 251.506 538.67 251.215 538.455 250.983C538.24 250.751 537.961 250.589 537.652 250.519C537.344 250.448 537.022 250.473 536.728 250.589C536.434 250.705 536.182 250.907 536.004 251.169C535.827 251.431 535.733 251.74 535.735 252.056Z" fill="#263238"/>
<path d="M538.05 245.819L541.149 247.606C541.374 247.166 541.425 246.656 541.292 246.18C541.159 245.703 540.85 245.294 540.429 245.034C540.223 244.919 539.996 244.848 539.761 244.825C539.527 244.802 539.29 244.829 539.066 244.903C538.843 244.976 538.637 245.096 538.461 245.254C538.286 245.412 538.146 245.604 538.05 245.819Z" fill="#263238"/>
<path d="M534.642 262.485L531.337 263.771C531.403 263.998 531.515 264.209 531.667 264.39C531.818 264.572 532.005 264.72 532.216 264.826C532.427 264.932 532.658 264.994 532.894 265.007C533.129 265.02 533.366 264.985 533.587 264.903C534.037 264.709 534.396 264.352 534.592 263.903C534.788 263.454 534.806 262.947 534.642 262.485Z" fill="#F28F8F"/>
<path d="M522.437 247.143L525.267 244.88C525.14 244.683 524.973 244.514 524.777 244.385C524.58 244.256 524.359 244.17 524.127 244.133C523.896 244.095 523.659 244.107 523.432 244.167C523.205 244.227 522.993 244.334 522.81 244.481C522.432 244.802 522.185 245.25 522.117 245.741C522.048 246.232 522.162 246.731 522.437 247.143Z" fill="#263238"/>
<path d="M523.685 251.632C523.707 251.913 523.811 252.182 523.984 252.405C524.157 252.628 524.391 252.796 524.657 252.889C524.924 252.981 525.212 252.994 525.486 252.926C525.76 252.857 526.008 252.71 526.2 252.503C526.391 252.296 526.519 252.038 526.566 251.759C526.613 251.481 526.579 251.195 526.466 250.936C526.353 250.677 526.168 250.457 525.932 250.302C525.696 250.147 525.42 250.064 525.138 250.063C524.939 250.069 524.744 250.115 524.563 250.198C524.382 250.281 524.219 250.398 524.084 250.544C523.949 250.69 523.844 250.861 523.776 251.048C523.707 251.235 523.676 251.433 523.685 251.632Z" fill="#263238"/>
<path d="M531.439 250.423L531.272 259.566L526.077 258.383L531.439 250.423Z" fill="#F28F8F"/>
<path d="M408.061 327.004L416.124 322.349L419.313 318.478L411.263 323.133L408.061 327.004Z" fill="#7A9F5A"/>
<path opacity="0.4" d="M408.061 327.004L416.124 322.349L419.313 318.478L411.263 323.133L408.061 327.004Z" fill="black"/>
<path d="M429.987 339.658L438.05 335.003L444.776 329.049L436.726 333.691L429.987 339.658Z" fill="#7A9F5A"/>
<path opacity="0.4" d="M429.987 339.658L438.05 335.003L444.776 329.049L436.726 333.691L429.987 339.658Z" fill="black"/>
<path d="M498.479 355.72C500.386 358.276 501.54 361.314 501.81 364.491C499.912 361.931 498.759 358.895 498.479 355.72ZM517.216 355.965C514.503 337.511 504.588 319.262 492.782 312.434C487.111 309.154 481.864 309.039 477.659 311.495L470.072 315.867L469.647 316.125C469.309 316.311 468.983 316.517 468.67 316.742C468.047 317.171 467.461 317.653 466.921 318.182L466.664 318.426C466.432 318.658 466.188 318.928 465.969 319.185C465.751 319.442 465.416 319.841 465.159 320.188C464.613 320.907 464.119 321.663 463.68 322.452C463.449 322.85 463.23 323.275 463.024 323.738L396.757 285.492L388.706 290.134V295.278L389.388 295.664L390.031 296.037V297.066L388.745 297.825V300.808L398.48 321.384L408.099 326.953L411.301 323.095L419.789 328.174L424.663 336.52L430.038 339.62L436.764 333.653L445.02 338.424L447.798 349.882L461.674 357.907C462.36 360.823 463.219 363.696 464.246 366.51C464.336 366.793 464.452 367.089 464.567 367.41C469.171 379.499 476.489 389.851 484.745 394.622C485.734 395.209 486.771 395.712 487.844 396.127C488.411 396.352 488.991 396.545 489.58 396.705C490.095 396.842 490.609 396.958 491.123 397.053C492.748 397.349 494.412 397.349 496.036 397.053L496.705 396.885C497.024 396.821 497.338 396.731 497.643 396.615L498.364 396.332C498.618 396.24 498.864 396.124 499.097 395.985C499.334 395.882 499.566 395.766 499.791 395.638L500.125 395.432C500.186 395.412 500.243 395.382 500.293 395.342C502.132 394.288 506.658 391.664 507.893 390.97C514.014 387.42 517.975 378.444 517.975 365.751C517.965 362.475 517.711 359.204 517.216 355.965Z" fill="#7A9F5A"/>
<path d="M496.126 371.294C492.937 369.455 490.365 364.002 490.365 359.116C490.365 354.229 492.937 351.747 496.126 353.573C499.315 355.399 501.874 360.864 501.874 365.764C501.874 370.664 499.302 373.133 496.126 371.294ZM509.153 360.607C506.453 342.166 496.537 323.905 484.719 317.089C479.241 313.925 474.174 313.694 470.059 315.867L469.634 316.125C469.296 316.311 468.97 316.517 468.657 316.742C468.034 317.171 467.449 317.653 466.908 318.182L466.651 318.426C466.419 318.658 466.175 318.928 465.956 319.185C465.738 319.442 465.403 319.841 465.146 320.188C464.6 320.907 464.106 321.663 463.667 322.452C463.436 322.85 463.217 323.275 463.011 323.738C461.812 326.223 460.948 328.857 460.439 331.569L388.694 290.134V295.278L389.375 295.664L390.018 296.037V297.066L388.732 297.825V300.808L398.467 321.384L408.086 326.953L411.289 323.095L419.776 328.174L424.65 336.52L430.026 339.62L436.751 333.653L445.007 338.424L447.785 349.882L461.674 357.907C462.36 360.823 463.219 363.696 464.246 366.51C464.336 366.793 464.452 367.089 464.568 367.41C469.171 379.499 476.489 389.851 484.745 394.622C485.734 395.209 486.771 395.712 487.844 396.127C488.411 396.352 488.991 396.545 489.58 396.705C490.095 396.842 490.609 396.958 491.123 397.052C492.748 397.349 494.412 397.349 496.036 397.052L496.705 396.885C497.024 396.821 497.338 396.731 497.643 396.615L498.364 396.332C498.618 396.24 498.864 396.124 499.097 395.985C499.334 395.882 499.566 395.766 499.791 395.638L500.125 395.432C500.186 395.412 500.243 395.382 500.293 395.342C506.157 391.638 509.925 382.791 509.925 370.407C509.903 367.126 509.645 363.851 509.153 360.607Z" fill="#7A9F5A"/>
<path opacity="0.4" d="M501.874 365.751C501.874 370.651 499.302 373.133 496.126 371.294C492.95 369.455 490.365 364.015 490.365 359.115C490.365 354.216 492.937 351.734 496.126 353.573C497.044 354.132 497.844 354.866 498.479 355.733C498.756 358.909 499.909 361.945 501.81 364.504C501.857 364.918 501.879 365.335 501.874 365.751Z" fill="black"/>
<path opacity="0.4" d="M517.949 365.738C517.949 378.431 513.989 387.408 507.867 390.957C506.581 391.651 502.106 394.275 500.267 395.329C506.131 391.626 509.899 382.778 509.899 370.394C509.885 367.118 509.636 363.847 509.153 360.607C506.453 342.166 496.537 323.905 484.719 317.089C479.241 313.925 474.174 313.694 470.059 315.867L477.646 311.495C481.851 309.039 487.098 309.154 492.769 312.434C504.588 319.262 514.503 337.511 517.203 355.965C517.693 359.2 517.943 362.467 517.949 365.738Z" fill="white"/>
<path d="M509.899 370.368C509.899 382.752 506.131 391.6 500.267 395.304C502.106 394.249 506.633 391.626 507.867 390.931C513.988 387.382 517.949 378.406 517.949 365.713C517.949 365.25 517.949 364.774 517.949 364.298L509.899 368.953C509.886 369.455 509.899 369.918 509.899 370.368Z" fill="#7A9F5A"/>
<path opacity="0.1" d="M509.899 370.368C509.899 382.752 506.131 391.6 500.267 395.304C502.106 394.249 506.633 391.626 507.867 390.931C513.988 387.382 517.949 378.406 517.949 365.713C517.949 365.25 517.949 364.774 517.949 364.298L509.899 368.953C509.886 369.455 509.899 369.918 509.899 370.368Z" fill="black"/>
<path opacity="0.15" d="M460.748 336.829V339.44L388.706 297.85L390.031 297.079V295.999L460.748 336.829Z" fill="black"/>
<path opacity="0.15" d="M460.748 337.909V339.44L388.706 297.85L390.031 297.079V297.066L460.748 337.909Z" fill="black"/>
<path opacity="0.15" d="M492.075 390.944C489.345 390.873 486.682 390.079 484.359 388.642C472.618 381.865 463.063 361.7 463.063 343.696C463.063 333.19 466.239 325.345 471.782 322.143C475.64 319.905 480.205 320.188 485.002 322.953C496.73 329.73 506.285 349.959 506.285 367.963C506.285 378.457 503.109 386.314 497.566 389.504C495.894 390.458 494 390.955 492.075 390.944ZM477.35 321.95C475.637 321.941 473.951 322.384 472.464 323.236C467.41 326.155 464.387 333.807 464.387 343.684C464.387 361.276 473.647 380.977 485.041 387.51C489.4 390.082 493.528 390.314 496.962 388.333C502.016 385.414 505.038 377.775 505.038 367.899C505.038 350.294 495.779 330.605 484.398 324.059C482.271 322.765 479.84 322.055 477.35 322.002V321.95Z" fill="black"/>
<path opacity="0.4" d="M462.96 323.712C461.761 326.198 460.896 328.831 460.388 331.544L388.642 290.109L396.692 285.466L462.96 323.712Z" fill="white"/>
<path d="M556.208 327.737C559.963 320.626 564.258 304.653 566.393 296.59C569.428 285.145 564.515 277.943 558.934 277.647C555.449 278.188 543.965 319.944 543.965 319.944C542.679 320.96 525.228 329.82 519.621 332.045C518.618 332.425 517.512 332.425 516.509 332.045C513.821 331.068 511.982 331.248 509.346 330.991C507.276 330.785 506.234 330.052 505.964 330.489C505.719 331.032 505.687 331.647 505.875 332.212C506.064 332.777 506.458 333.25 506.98 333.537C508.115 334.198 509.323 334.725 510.581 335.106C508.327 335.79 505.978 336.107 503.623 336.045C498.222 335.929 496.28 338.269 500.473 343.761C503.045 347.181 507.301 348.262 516.805 344.982C519.531 344.031 523.235 342.192 526.694 340.944C533.819 338.372 535.696 338.064 541.123 336.225C549.032 333.55 554.536 330.901 556.208 327.737Z" fill="#FFA8A7"/>
<path d="M556.838 276.567C560.117 277.017 563.268 277.75 565.21 280.425C567.152 283.1 568.708 286.855 566.805 297.079C565.347 304.269 563.396 311.35 560.966 318.272C560.966 318.272 553.327 321.539 545.213 313.257L550.794 291.678C550.794 291.678 551.694 277.647 556.838 276.567Z" fill="#455A64"/>
</svg>
