<svg width="80" height="61" viewBox="0 0 80 61" fill="none" xmlns="http://www.w3.org/2000/svg">
<path d="M25.9996 44.2L67.2996 2.89997C68.5829 1.61664 70.2163 0.974976 72.1996 0.974976C74.1829 0.974976 75.8163 1.61664 77.0996 2.89997C78.3829 4.18331 79.0246 5.81664 79.0246 7.79997C79.0246 9.7833 78.3829 11.4166 77.0996 12.7L30.8996 58.9C29.4996 60.3 27.8663 61 25.9996 61C24.1329 61 22.4996 60.3 21.0996 58.9L2.89961 40.7C1.61627 39.4166 0.974609 37.7833 0.974609 35.8C0.974609 33.8166 1.61627 32.1833 2.89961 30.9C4.18294 29.6166 5.81628 28.975 7.79961 28.975C9.78294 28.975 11.4163 29.6166 12.6996 30.9L25.9996 44.2Z" fill="#7A9F5A"/>
</svg>
