<svg width="50" height="50" viewBox="0 0 50 50" fill="none" xmlns="http://www.w3.org/2000/svg">
<circle cx="25" cy="25" r="25" fill="#DEE7D6"/>
<path d="M21.25 23.75H32.5V26.25H21.25V23.75ZM32.5 18.75H17.5V21.25H32.5V18.75ZM37.5 15V37.5L32.5 32.5H15C14.337 32.5 13.7011 32.2366 13.2322 31.7678C12.7634 31.2989 12.5 30.663 12.5 30V15C12.5 13.625 13.625 12.5 15 12.5H35C35.663 12.5 36.2989 12.7634 36.7678 13.2322C37.2366 13.7011 37.5 14.337 37.5 15ZM35 15H15V30H33.5375L35 31.4625V15Z" fill="#7A9F5A"/>
</svg>
