<svg width="30" height="31" viewBox="0 0 30 31" fill="none" xmlns="http://www.w3.org/2000/svg">
<path d="M2.5 6.76938L4.1 5.18188L25 26.0819L23.4125 27.6819L19.5625 23.8319C18.125 24.3069 16.6 24.5569 15 24.5569C8.75 24.5569 3.4125 20.6694 1.25 15.1819C2.1125 12.9819 3.4875 11.0444 5.2375 9.50688L2.5 6.76938ZM15 11.4319C15.9946 11.4319 16.9484 11.827 17.6517 12.5302C18.3549 13.2335 18.75 14.1873 18.75 15.1819C18.7506 15.6076 18.6788 16.0303 18.5375 16.4319L13.75 11.6444C14.1516 11.5031 14.5743 11.4313 15 11.4319ZM15 5.80688C21.25 5.80688 26.5875 9.69439 28.75 15.1819C27.7298 17.7734 25.9962 20.0228 23.75 21.6694L21.975 19.8819C23.7036 18.6861 25.0978 17.0682 26.025 15.1819C25.0145 13.1193 23.4455 11.3816 21.4966 10.1663C19.5476 8.95094 17.2968 8.30673 15 8.30688C13.6375 8.30688 12.3 8.53188 11.05 8.93188L9.125 7.01938C10.925 6.24438 12.9125 5.80688 15 5.80688ZM3.975 15.1819C4.98555 17.2445 6.55446 18.9822 8.50341 20.1975C10.4524 21.4128 12.7032 22.057 15 22.0569C15.8625 22.0569 16.7125 21.9694 17.5 21.7944L14.65 18.9319C13.7802 18.8387 12.9685 18.4505 12.35 17.8319C11.7314 17.2134 11.3432 16.4017 11.25 15.5319L7 11.2694C5.7625 12.3319 4.725 13.6569 3.975 15.1819Z" fill="black"/>
</svg>
