<svg width="30" height="30" viewBox="0 0 30 30" fill="none" xmlns="http://www.w3.org/2000/svg">
<path d="M8.12506 12.5001C7.84631 12.5001 7.57881 12.5426 7.31256 12.5813C7.39881 12.2913 7.48756 11.9963 7.63006 11.7313C7.77256 11.3463 7.99506 11.0126 8.21631 10.6763C8.40131 10.3126 8.72756 10.0663 8.96756 9.7551C9.21881 9.4526 9.56131 9.25135 9.83256 9.0001C10.0988 8.7376 10.4476 8.60635 10.7251 8.42135C11.0151 8.2551 11.2676 8.07135 11.5376 7.98385L12.2113 7.70635L12.8038 7.4601L12.1976 5.0376L11.4513 5.2176C11.2126 5.2776 10.9213 5.3476 10.5901 5.43135C10.2513 5.49385 9.89006 5.6651 9.48756 5.82135C9.09006 5.99885 8.63006 6.11885 8.20256 6.40385C7.77256 6.67635 7.27631 6.90385 6.83881 7.26885C6.41506 7.6451 5.90381 7.97135 5.52631 8.4501C5.11381 8.8976 4.70631 9.3676 4.39006 9.9026C4.02381 10.4126 3.77506 10.9726 3.51256 11.5263C3.27506 12.0801 3.08381 12.6463 2.92756 13.1963C2.63131 14.2988 2.49881 15.3463 2.44756 16.2426C2.40506 17.1401 2.43006 17.8863 2.48256 18.4263C2.50131 18.6813 2.53631 18.9288 2.56131 19.1001L2.59256 19.3101L2.62506 19.3026C2.84739 20.3411 3.35919 21.2955 4.10126 22.0553C4.84334 22.8151 5.78536 23.3493 6.81836 23.5961C7.85136 23.8429 8.93312 23.7922 9.9385 23.4499C10.9439 23.1076 11.8318 22.4876 12.4996 21.6617C13.1673 20.8358 13.5876 19.8377 13.7118 18.783C13.836 17.7282 13.6591 16.6598 13.2015 15.7014C12.7438 14.743 12.0242 13.9337 11.1259 13.3672C10.2275 12.8006 9.18713 12.5 8.12506 12.5001ZM21.8751 12.5001C21.5963 12.5001 21.3288 12.5426 21.0626 12.5813C21.1488 12.2913 21.2376 11.9963 21.3801 11.7313C21.5226 11.3463 21.7451 11.0126 21.9663 10.6763C22.1513 10.3126 22.4776 10.0663 22.7176 9.7551C22.9688 9.4526 23.3113 9.25135 23.5826 9.0001C23.8488 8.7376 24.1976 8.60635 24.4751 8.42135C24.7651 8.2551 25.0176 8.07135 25.2876 7.98385L25.9613 7.70635L26.5538 7.4601L25.9476 5.0376L25.2013 5.2176C24.9626 5.2776 24.6713 5.3476 24.3401 5.43135C24.0013 5.49385 23.6401 5.6651 23.2376 5.82135C22.8413 6.0001 22.3801 6.11885 21.9526 6.4051C21.5226 6.6776 21.0263 6.9051 20.5888 7.2701C20.1651 7.64635 19.6538 7.9726 19.2763 8.4501C18.8638 8.8976 18.4563 9.3676 18.1401 9.9026C17.7738 10.4126 17.5251 10.9726 17.2626 11.5263C17.0251 12.0801 16.8338 12.6463 16.6776 13.1963C16.3813 14.2988 16.2488 15.3463 16.1976 16.2426C16.1551 17.1401 16.1801 17.8863 16.2326 18.4263C16.2513 18.6813 16.2863 18.9288 16.3113 19.1001L16.3426 19.3101L16.3751 19.3026C16.5974 20.3411 17.1092 21.2955 17.8513 22.0553C18.5933 22.8151 19.5354 23.3493 20.5684 23.5961C21.6014 23.8429 22.6831 23.7922 23.6885 23.4499C24.6939 23.1076 25.5818 22.4876 26.2496 21.6617C26.9173 20.8358 27.3376 19.8377 27.4618 18.783C27.586 17.7282 27.4091 16.6598 26.9515 15.7014C26.4938 14.743 25.7742 13.9337 24.8759 13.3672C23.9775 12.8006 22.9371 12.5 21.8751 12.5001Z" fill="#7A9F5A"/>
</svg>
