<svg width="643" height="643" viewBox="0 0 643 643" fill="none" xmlns="http://www.w3.org/2000/svg">
<path d="M117.618 564.554C231.763 622.913 416.818 622.926 530.964 564.554C645.109 506.182 645.109 411.52 530.964 353.213C416.818 294.906 231.763 294.854 117.618 353.213C3.4722 411.571 3.4722 506.234 117.618 564.554Z" fill="#F5F5F5"/>
<path d="M191.01 500.087L129.385 464.748L210.583 419.082L191.383 500.73" fill="#E0E0E0"/>
<path d="M533.24 478.456C566.962 478.456 594.299 463.596 594.299 445.265C594.299 426.933 566.962 412.073 533.24 412.073C499.518 412.073 472.181 426.933 472.181 445.265C472.181 463.596 499.518 478.456 533.24 478.456Z" fill="#E0E0E0"/>
<path d="M305.579 468.425L360.453 500.113C362.498 501.147 364.758 501.685 367.05 501.685C369.342 501.685 371.602 501.147 373.647 500.113L484.243 436.276C487.883 434.166 487.883 430.759 484.243 428.662L429.37 396.975C427.324 395.941 425.064 395.402 422.772 395.402C420.481 395.402 418.221 395.941 416.175 396.975L305.579 460.812C301.927 462.96 301.927 466.329 305.579 468.425Z" fill="#E0E0E0"/>
<path d="M97.3374 253.599V484.462L312.781 360.067V151.709L165.611 236.611L160.081 217.295L97.3374 253.599Z" fill="#37474F"/>
<path d="M97.3374 484.462L108.384 281.737L323.828 157.355L312.781 360.067L97.3374 484.462Z" fill="#F0F0F0"/>
<path d="M97.3374 484.462L116.846 287.382L332.29 163L312.781 360.067L97.3374 484.462Z" fill="#455A64"/>
<path d="M190.598 500.987C189.994 500.987 189.904 500.293 189.904 499.881V203.278C189.949 202.506 190.174 201.756 190.56 201.086C190.947 200.417 191.483 199.846 192.128 199.42L400.28 79.3333C400.515 79.1808 400.785 79.0921 401.065 79.0761C401.656 79.0761 401.746 79.7706 401.746 80.1821V376.798C401.701 377.57 401.476 378.32 401.09 378.99C400.703 379.659 400.167 380.23 399.522 380.656L191.382 500.73C191.146 500.879 190.877 500.968 190.598 500.987Z" fill="#FAFAFA"/>
<path d="M400.962 79.8477C400.981 79.9584 400.981 80.0714 400.962 80.1821V376.798C400.909 377.435 400.715 378.053 400.395 378.607C400.075 379.16 399.636 379.636 399.11 380L191.01 500.087C190.91 500.147 190.802 500.19 190.688 500.215C190.678 500.104 190.678 499.992 190.688 499.881V203.278C190.737 202.641 190.928 202.023 191.246 201.469C191.564 200.915 192.002 200.439 192.527 200.076L400.653 79.9763C400.75 79.9194 400.854 79.8761 400.962 79.8477ZM401.065 78.3303C400.655 78.3402 400.255 78.4602 399.908 78.6775L191.756 198.777C191.004 199.273 190.379 199.938 189.932 200.72C189.485 201.502 189.229 202.379 189.184 203.278V499.881C189.184 501.051 189.762 501.733 190.624 501.733C191.033 501.717 191.431 501.598 191.781 501.386L399.946 381.286C400.695 380.788 401.318 380.121 401.764 379.34C402.211 378.558 402.469 377.684 402.518 376.785V80.1821C402.518 78.999 401.927 78.3303 401.078 78.3303H401.065Z" fill="#E6E6E6"/>
<path d="M207.445 210.84L268.401 175.642V246.025L207.445 281.222V210.84Z" fill="#7A9F5A"/>
<path d="M259.258 193.234V214.35L257.342 215.418V208.988C257.342 205.413 254.435 204.204 250.847 206.274L225.05 221.192C221.462 223.262 218.543 227.841 218.543 231.403V237.833L216.64 238.977V217.874L259.258 193.234Z" fill="#FAFAFA"/>
<path d="M247.504 247.053C244.366 248.867 241.832 246.963 241.832 242.823V208.949L234.052 213.219V247.349C234.052 251.49 231.48 256.351 228.381 258.113L222.722 261.38V263.63L253.201 246.025V243.787L247.504 247.053Z" fill="#FAFAFA"/>
<path d="M280.592 172.131C280.592 174.073 282.341 174.703 284.45 173.417L380.283 118.119C381.327 117.518 382.218 116.684 382.887 115.683C383.556 114.682 383.985 113.539 384.141 112.345C384.141 110.403 382.392 109.837 380.283 111.059L284.45 166.357C283.405 166.956 282.512 167.789 281.843 168.791C281.173 169.792 280.745 170.936 280.592 172.131Z" fill="#E0E0E0"/>
<path d="M280.592 193.234C280.592 195.189 282.341 195.806 284.45 194.52L380.283 139.222C381.327 138.621 382.218 137.788 382.887 136.786C383.556 135.785 383.985 134.643 384.141 133.448C384.141 131.506 382.392 130.876 380.283 132.162L284.45 187.46C283.405 188.059 282.512 188.892 281.843 189.894C281.173 190.896 280.745 192.039 280.592 193.234Z" fill="#E0E0E0"/>
<path d="M280.592 214.35C280.592 216.305 282.341 216.922 284.45 215.636L380.283 160.338C381.327 159.737 382.218 158.904 382.887 157.902C383.556 156.901 383.985 155.759 384.141 154.564C384.141 152.622 382.392 151.992 380.283 153.278L284.45 208.576C283.405 209.175 282.512 210.008 281.843 211.01C281.173 212.012 280.745 213.155 280.592 214.35Z" fill="#E0E0E0"/>
<path d="M280.592 235.467C280.592 237.408 282.341 238.039 284.45 236.753L380.283 181.455C381.327 180.854 382.218 180.02 382.887 179.019C383.556 178.017 383.985 176.875 384.141 175.68C384.141 173.739 382.392 173.173 380.283 174.394L284.45 229.692C283.405 230.291 282.512 231.124 281.843 232.126C281.173 233.128 280.745 234.271 280.592 235.467Z" fill="#E0E0E0"/>
<path d="M207.445 298.828C207.445 300.77 209.194 301.336 211.303 300.114L380.283 202.635C381.327 202.034 382.218 201.2 382.887 200.199C383.556 199.197 383.985 198.055 384.141 196.861C384.141 194.919 382.392 194.353 380.283 195.575L211.303 293.067C210.261 293.666 209.371 294.498 208.702 295.497C208.032 296.496 207.602 297.636 207.445 298.828Z" fill="#E0E0E0"/>
<path d="M207.445 319.944C207.445 321.886 209.194 322.516 211.303 321.23L380.322 223.764C381.366 223.163 382.257 222.329 382.926 221.328C383.595 220.326 384.024 219.184 384.18 217.99C384.18 216.048 382.431 215.482 380.322 216.704L211.341 314.17C210.29 314.766 209.392 315.598 208.716 316.6C208.04 317.602 207.605 318.746 207.445 319.944Z" fill="#E0E0E0"/>
<path d="M207.445 341.06C207.445 343.002 209.194 343.632 211.303 342.346L380.283 244.867C381.327 244.266 382.218 243.433 382.887 242.431C383.556 241.43 383.985 240.287 384.141 239.093C384.141 237.151 382.392 236.521 380.283 237.807L211.303 335.299C210.261 335.899 209.371 336.73 208.702 337.729C208.032 338.728 207.602 339.868 207.445 341.06Z" fill="#E0E0E0"/>
<path d="M207.445 362.163C207.445 364.105 209.194 364.735 211.303 363.449L380.283 265.958C381.327 265.36 382.219 264.529 382.888 263.53C383.558 262.53 383.986 261.389 384.141 260.196C384.141 258.242 382.392 257.624 380.283 258.91L211.303 356.402C210.259 356.999 209.367 357.83 208.698 358.83C208.028 359.829 207.6 360.97 207.445 362.163Z" fill="#E0E0E0"/>
<path d="M207.445 383.228C207.445 385.17 209.194 385.736 211.303 384.514L380.283 287.022C381.327 286.421 382.218 285.588 382.887 284.586C383.556 283.585 383.985 282.443 384.141 281.248C384.141 279.306 382.392 278.741 380.283 279.962L211.303 377.441C210.257 378.043 209.365 378.879 208.696 379.883C208.027 380.887 207.599 382.031 207.445 383.228Z" fill="#E0E0E0"/>
<path d="M207.445 404.396C207.445 406.337 209.194 406.968 211.303 405.682L380.283 308.203C381.327 307.602 382.218 306.768 382.887 305.767C383.556 304.765 383.985 303.623 384.141 302.429C384.141 300.487 382.392 299.857 380.283 301.143L211.341 398.66C210.295 399.253 209.4 400.078 208.724 401.073C208.048 402.068 207.61 403.205 207.445 404.396Z" fill="#E0E0E0"/>
<path d="M207.445 425.499C207.445 427.441 209.194 428.071 211.303 426.785L380.283 329.293C381.327 328.696 382.219 327.865 382.888 326.865C383.558 325.866 383.986 324.725 384.141 323.532C384.141 321.577 382.392 320.96 380.283 322.246L211.303 419.738C210.259 420.335 209.367 421.166 208.698 422.165C208.028 423.165 207.6 424.306 207.445 425.499Z" fill="#E0E0E0"/>
<path d="M207.445 446.615C207.445 448.557 209.194 449.123 211.303 447.901L380.283 350.409C381.327 349.808 382.218 348.975 382.887 347.973C383.556 346.972 383.985 345.829 384.141 344.635C384.141 342.693 382.392 342.063 380.283 343.349L211.303 440.828C210.257 441.43 209.365 442.266 208.696 443.27C208.027 444.273 207.599 445.418 207.445 446.615Z" fill="#E0E0E0"/>
<path d="M207.445 467.731C207.445 469.673 209.194 470.303 211.303 469.017L380.283 371.538C381.327 370.937 382.218 370.104 382.887 369.102C383.556 368.101 383.985 366.958 384.141 365.764C384.141 363.822 382.392 363.256 380.283 364.478L211.303 461.97C210.261 462.57 209.371 463.401 208.702 464.4C208.032 465.399 207.602 466.539 207.445 467.731Z" fill="#E0E0E0"/>
<path d="M467.68 315.662C467.728 308.169 469.866 300.838 473.852 294.494V282.547C473.906 281.938 473.811 281.325 473.576 280.76C473.341 280.196 472.972 279.697 472.502 279.306C472.385 279.225 472.26 279.156 472.129 279.101L433.382 256.686C432.796 256.43 432.153 256.332 431.518 256.399C430.882 256.467 430.275 256.699 429.755 257.071L399.213 274.702C397.74 275.719 396.519 277.058 395.643 278.618C394.767 280.178 394.26 281.918 394.159 283.704C393.812 292.449 390.957 308.64 375.512 317.552C360.067 326.464 357.173 313.411 356.852 305.078C356.723 301.76 354.679 300.422 351.811 302.081L321.256 319.712C319.752 320.704 318.503 322.036 317.61 323.6C316.716 325.164 316.203 326.916 316.112 328.714V340.661C316.112 340.661 322.284 342.385 322.284 354.705C322.284 367.024 312.742 389.362 312.742 420.368C312.742 435.89 317.668 448.853 328.007 454.807L366.831 477.209C377.119 483.279 392.886 482.353 414.581 469.776C457.764 444.84 477.389 401.348 477.389 370.355C477.389 339.363 467.68 327.93 467.68 315.662Z" fill="#7A9F5A"/>
<path d="M429.627 257.033L399.084 274.664C397.61 275.679 396.388 277.018 395.512 278.578C394.636 280.139 394.129 281.879 394.03 283.666C393.709 291.729 391.265 306.107 378.791 315.276L355.296 301.708L355.167 301.644C354.604 301.393 353.983 301.297 353.37 301.367C352.757 301.437 352.174 301.67 351.682 302.043L321.127 319.674C320.701 319.922 320.301 320.21 319.931 320.535C318.937 321.388 318.097 322.406 317.449 323.545C316.519 325.105 315.997 326.874 315.932 328.689V340.636L317.616 341.613C319.468 343.105 322.104 346.628 322.104 354.666C322.104 366.986 312.562 389.388 312.562 420.329C312.562 435.851 317.488 448.84 327.827 454.794L366.51 477.106C356.363 471.075 351.541 458.215 351.541 442.834C351.541 411.829 361.07 389.478 361.07 377.158C361.07 364.838 354.897 363.128 354.897 363.128V351.181C354.996 349.384 355.512 347.634 356.405 346.072C357.298 344.509 358.543 343.176 360.041 342.179L390.597 324.548C391.074 324.193 391.633 323.964 392.222 323.883C392.811 323.802 393.411 323.871 393.966 324.085H394.095C394.616 324.473 395.031 324.987 395.3 325.578C395.57 326.169 395.686 326.819 395.638 327.467C395.946 335.813 398.75 348.93 414.298 339.954C429.845 330.978 432.597 314.851 432.958 306.107C433.053 304.32 433.557 302.58 434.431 301.019C435.305 299.459 436.526 298.119 437.999 297.105L468.541 279.474C469.04 279.118 469.62 278.891 470.227 278.812C470.835 278.734 471.453 278.806 472.026 279.023L433.382 256.686C432.782 256.402 432.117 256.284 431.457 256.345C430.796 256.407 430.164 256.644 429.627 257.033Z" fill="#7A9F5A"/>
<path opacity="0.1" d="M317.642 341.6L354.936 363.115V351.168C354.994 349.35 355.521 347.578 356.466 346.024L317.449 323.558C316.517 325.117 315.995 326.886 315.932 328.702V340.649L317.642 341.6Z" fill="black"/>
<path opacity="0.4" d="M378.791 315.276L355.296 301.708L355.167 301.644C354.604 301.393 353.983 301.297 353.37 301.367C352.757 301.437 352.174 301.67 351.682 302.043L321.127 319.674C320.701 319.922 320.301 320.21 319.931 320.536C318.937 321.388 318.097 322.406 317.449 323.545L356.479 346.075C357.352 344.498 358.614 343.17 360.144 342.217L390.7 324.586C391.176 324.231 391.736 324.002 392.325 323.922C392.914 323.841 393.514 323.91 394.069 324.123L378.791 315.276Z" fill="white"/>
<path opacity="0.4" d="M472.129 279.062L433.382 256.686C432.789 256.412 432.134 256.3 431.483 256.361C430.833 256.421 430.21 256.653 429.678 257.033L399.136 274.664C397.631 275.612 396.406 276.944 395.586 278.522L434.604 301.04C435.423 299.461 436.648 298.13 438.153 297.182L468.696 279.551C469.185 279.197 469.754 278.968 470.352 278.883C470.95 278.798 471.56 278.859 472.129 279.062Z" fill="white"/>
<path opacity="0.1" d="M434.552 301.053C433.677 302.635 433.163 304.392 433.048 306.197C432.7 314.941 429.833 331.132 414.401 340.044C398.969 348.956 396.049 335.903 395.741 327.557C395.789 326.909 395.673 326.259 395.403 325.668C395.134 325.077 394.719 324.563 394.198 324.175H394.069L378.791 315.353C391.265 306.184 393.709 291.806 394.03 283.743C394.141 281.937 394.655 280.18 395.535 278.599L434.552 301.053Z" fill="black"/>
<path opacity="0.2" d="M366.51 477.106L327.776 454.768C317.488 448.814 312.511 435.825 312.511 420.303C312.511 389.311 322.053 366.96 322.053 354.64C322.053 346.667 319.481 343.143 317.616 341.613L354.91 363.128C354.91 363.128 361.083 364.851 361.083 377.158C361.083 389.465 351.554 411.88 351.554 442.834C351.592 458.228 356.415 471.088 366.51 477.106Z" fill="black"/>
<path d="M423.261 424.046L406.543 433.691L409.115 403.457C407.109 402.402 405.836 399.805 405.836 396.075C405.836 389.414 409.887 381.685 414.838 378.791C419.789 375.898 423.84 378.971 423.84 385.633C423.736 389.578 422.611 393.428 420.573 396.808L423.261 424.046Z" fill="#455A64"/>
<path d="M423.261 424.046L408.125 415.301L406.543 433.691L423.261 424.046Z" fill="#37474F"/>
<path d="M414.902 378.791C411.636 380.682 408.781 384.643 407.186 389.079L420.663 396.86C422.701 393.48 423.826 389.629 423.93 385.684C423.943 378.971 419.892 375.911 414.902 378.791Z" fill="#37474F"/>
<path d="M433.793 203.021C425.524 198.25 415.146 198.79 405.283 204.474L368.85 225.513C353.058 234.631 341.15 255.258 341.15 273.481V322.67C341.15 324.702 342.513 326.747 345.201 328.303C348.223 329.837 351.565 330.636 354.955 330.636C358.345 330.636 361.687 329.837 364.709 328.303C367.397 326.747 368.76 324.702 368.76 322.67V273.481C368.76 265.096 375.383 253.625 382.649 249.433L419.082 228.394H419.172V277.673C419.172 279.718 420.535 281.75 423.222 283.306C426.245 284.84 429.587 285.639 432.977 285.639C436.366 285.639 439.708 284.84 442.731 283.306C445.419 281.75 446.782 279.718 446.782 277.673V228.445C446.782 217.051 442.049 207.792 433.793 203.021Z" fill="#37474F"/>
<path d="M419.236 228.445V277.622C419.236 279.666 420.599 281.698 423.287 283.254C424.564 283.97 425.931 284.515 427.35 284.875V223.661L419.236 228.342V228.445Z" fill="#263238"/>
<path d="M584.127 280.001C581.992 279.383 580.269 278.175 577.196 277.557C575.056 277.292 573.013 276.51 571.241 275.281C568.927 273.725 564.387 267.038 560.799 260.376C557.047 252.802 554.612 244.643 553.597 236.251C552.762 226.13 550.421 212.589 549.817 206.673C548.839 197.337 546.062 192.527 535.272 193.183C535.272 193.183 538.165 196.475 537.33 204.911C536.494 213.347 538.924 228.059 540.75 239.479C541.638 245.009 544.531 252.596 549.945 262.73C553.713 269.803 557.134 275.77 562.394 281.814C563.821 283.46 564.477 285.042 566.843 288.514C567.731 290.007 568.841 291.356 570.135 292.514C571.806 293.868 573.664 294.973 575.652 295.793C578.166 296.843 580.916 297.194 583.613 296.809C585.077 296.619 586.477 296.09 587.702 295.266C588.938 294.402 589.823 293.125 590.197 291.665C590.274 291.374 590.274 291.068 590.197 290.777C590.043 290.25 589.515 289.942 589.04 289.671C586.202 288.367 583.433 286.916 580.745 285.325C578.636 283.872 577.35 282.56 577.839 282.431C578.327 282.303 579.523 283.241 581.697 283.524C583.87 283.807 586.056 282.791 586.108 281.595C586.159 280.399 586.262 280.618 584.127 280.001Z" fill="#9A4A4D"/>
<path d="M534.539 192.604C538.397 192.347 546.704 191.318 549.199 199.15C551.694 206.982 554.575 236.251 555.346 239.968C556.623 245.599 558.343 251.12 560.49 256.48C562.754 262.035 569.325 273.365 569.325 273.365L561.133 280.348C561.133 280.348 549.662 267.038 543.772 252.905C537.882 238.772 536.056 220.523 535.76 209.657C535.679 203.954 535.271 198.26 534.539 192.604Z" fill="#7A9F5A"/>
<path opacity="0.1" d="M534.539 192.604C538.397 192.347 546.704 191.318 549.199 199.15C551.694 206.982 554.575 236.251 555.346 239.968C556.623 245.599 558.343 251.12 560.49 256.48C562.754 262.035 569.325 273.365 569.325 273.365L561.133 280.348C561.133 280.348 549.662 267.038 543.772 252.905C537.882 238.772 536.056 220.523 535.76 209.657C535.679 203.954 535.271 198.26 534.539 192.604Z" fill="black"/>
<path d="M541.856 431.003L553.302 431.402L553.88 410.633L542.422 410.234L541.856 431.003Z" fill="#9A4A4D"/>
<path d="M498.994 445.252H510.452V425.627H498.994V445.252Z" fill="#9A4A4D"/>
<path d="M510.452 439.606V437.96C511.545 438.436 514.091 448.158 518.644 452.312C522.258 455.604 527.183 459.411 528.443 463.089C529.704 466.767 521.576 469.03 518.155 468.425C514.233 467.731 507.43 464.966 505.72 462.407C504.009 459.848 503.212 456.067 501.862 454.189C500.511 452.312 497.283 450.216 496.525 448.042C496.113 446.846 496.602 444.184 497.181 442.024C497.759 439.863 498.299 437.767 498.981 437.96V439.246C500.614 440.531 502.639 441.216 504.717 441.188C506.388 441.214 510.465 440.879 510.452 439.606Z" fill="#263238"/>
<path d="M553.43 427.865C554.022 427.865 554.51 428.727 555.822 430.141C557.778 432.127 560.057 433.766 562.561 434.989C566.856 437.15 575.202 440.455 578.97 442.153C581.336 443.207 581.221 446.011 578.79 447.682C576.36 449.354 570.457 450.473 563.358 448.891C559.5 448.03 554.497 444.48 551.321 444.673C548.145 444.866 542.216 444.815 539.876 443.194C537.535 441.574 538.461 438.14 539.13 435.17C539.85 431.942 540.879 426.991 541.959 427.209V428.225C543.335 430.321 550.357 431.17 553.379 429.627L553.43 427.865Z" fill="#263238"/>
<path d="M503.881 263.077C494.879 281.518 503.765 351.065 503.765 351.065C503.443 354.074 499.843 359.951 498.248 373.236C496.37 388.925 497.991 429.254 497.991 429.254C497.991 429.254 505.475 432.572 511.571 429.82C511.571 429.82 522.335 369.969 524.675 354.383C526.707 340.777 530.706 310.839 530.706 310.839L539.091 354.64C537.612 359.004 536.51 363.488 535.799 368.04C534.693 377.21 541.277 420.008 541.277 420.008C545.349 421.716 549.874 422.019 554.137 420.869C554.137 420.869 557.995 364.067 559.127 353.007C560.953 334.437 555.565 276.349 553.662 264.196L503.881 263.077Z" fill="#263238"/>
<path d="M515.866 193.016C512.973 193.35 506.285 194.52 506.285 194.52C501.849 196.141 502.324 198.867 501.141 203.124C499.624 208.396 500.614 217.81 502.427 222.992L511.018 247.825C507.803 255.541 504.716 257.83 503.173 263.733C517.203 274.137 547.36 273.519 553.842 264.749C554.112 262.884 551.643 241.524 550.614 232.02C554.986 224.085 556.658 218.401 554.369 212.319C550.447 201.915 539.696 192.193 534.59 192.604L515.866 193.016Z" fill="#7A9F5A"/>
<path d="M524.585 184.078H520.354C514.437 184.078 508.762 181.727 504.577 177.543C500.393 173.359 498.042 167.683 498.042 161.766C498.042 155.818 500.405 150.113 504.611 145.907C508.817 141.701 514.522 139.338 520.47 139.338H524.47C530.418 139.338 536.122 141.701 540.328 145.907C544.534 150.113 546.897 155.818 546.897 161.766C546.897 167.683 544.547 173.359 540.362 177.543C536.178 181.727 530.503 184.078 524.585 184.078Z" fill="#263238"/>
<path d="M486.61 194.34C488.416 194.342 490.205 193.988 491.874 193.298C493.544 192.607 495.061 191.595 496.339 190.318C497.617 189.042 498.63 187.526 499.322 185.857C500.014 184.188 500.37 182.399 500.37 180.593V151.131C496.72 151.131 493.22 152.58 490.64 155.161C488.059 157.742 486.61 161.241 486.61 164.891V194.34Z" fill="#263238"/>
<path d="M539.593 147.478C542.281 149.073 545.611 155.85 545.277 170.048C545.007 182.072 541.097 185.043 539.143 185.904C537.188 186.766 533.407 186.239 529.729 185.621V192.9L528.996 201.375L514.619 194.803V177.301C514.619 177.301 512.137 180.606 508.086 177.918C504.035 175.23 503.881 168.556 506.234 166.164C508.587 163.772 513.68 164.531 514.619 167.836C514.619 167.836 516.265 164.377 524.675 161.496C533.536 158.461 536.481 153.137 539.593 147.478Z" fill="#B16668"/>
<path d="M530.501 167.026C530.503 167.323 530.418 167.614 530.256 167.864C530.094 168.113 529.862 168.309 529.589 168.428C529.317 168.547 529.015 168.583 528.722 168.531C528.43 168.48 528.158 168.344 527.942 168.14C527.726 167.936 527.574 167.673 527.506 167.384C527.438 167.094 527.457 166.791 527.559 166.512C527.662 166.233 527.844 165.991 528.084 165.814C528.323 165.638 528.609 165.536 528.906 165.521C529.317 165.511 529.715 165.663 530.013 165.945C530.312 166.227 530.487 166.615 530.501 167.026Z" fill="#263238"/>
<path d="M532.25 177.224L535.76 178.342C535.701 178.58 535.594 178.803 535.446 178.998C535.298 179.192 535.112 179.355 534.899 179.475C534.686 179.595 534.451 179.671 534.207 179.697C533.964 179.724 533.718 179.7 533.484 179.628C533.004 179.469 532.606 179.128 532.375 178.678C532.144 178.229 532.099 177.706 532.25 177.224Z" fill="#9A4A4D"/>
<path d="M542.898 162.37L539.837 160.248C539.966 160.038 540.136 159.857 540.338 159.716C540.54 159.575 540.769 159.478 541.011 159.429C541.252 159.381 541.501 159.383 541.742 159.436C541.982 159.488 542.21 159.59 542.409 159.734C542.817 160.024 543.095 160.462 543.186 160.953C543.278 161.445 543.174 161.953 542.898 162.37Z" fill="#263238"/>
<path d="M542.203 165.894C542.23 166.101 542.214 166.312 542.155 166.513C542.096 166.713 541.997 166.9 541.863 167.06C541.729 167.221 541.563 167.352 541.376 167.445C541.189 167.538 540.985 167.592 540.776 167.603C540.567 167.613 540.358 167.581 540.163 167.507C539.967 167.433 539.789 167.32 539.639 167.174C539.489 167.028 539.371 166.853 539.293 166.659C539.214 166.465 539.176 166.257 539.181 166.048C539.166 165.846 539.19 165.643 539.254 165.45C539.317 165.258 539.418 165.08 539.551 164.927C539.684 164.774 539.846 164.648 540.027 164.558C540.209 164.468 540.407 164.415 540.609 164.402C541.017 164.392 541.413 164.542 541.712 164.821C542.01 165.101 542.187 165.486 542.203 165.894Z" fill="#263238"/>
<path d="M534.809 165.058L535.053 174.163L539.837 172.684L534.809 165.058Z" fill="#9A4A4D"/>
<path d="M529.729 185.621C525.871 185.12 517.911 182.831 516.663 179.68C517.16 181.276 518.134 182.681 519.454 183.705C521.833 185.737 529.742 188.039 529.742 188.039L529.729 185.621Z" fill="#9A4A4D"/>
<path d="M530.707 310.839L535.079 289.607C535.079 289.607 544.21 288.077 549.058 284.618C546.304 287.954 542.739 290.527 538.705 292.089L533.69 312.125L534.976 332.958L530.707 310.839Z" fill="black"/>
<path d="M514.323 153.96C514.323 153.96 531.607 165.727 543.618 159.85C555.629 153.973 540.069 145.704 540.069 145.704L514.323 153.96Z" fill="#37474F"/>
<path d="M539.94 129.294C529.652 126.414 518.502 124.562 505.539 129.294C492.577 134.027 489.747 142.026 489.747 142.026C489.747 142.026 502.942 147.247 513.68 145.485C524.418 143.723 539.94 129.294 539.94 129.294Z" fill="#7A9F5A"/>
<path opacity="0.4" d="M539.94 129.294C529.652 126.414 518.502 124.562 505.539 129.294C492.577 134.027 489.747 142.026 489.747 142.026C489.747 142.026 502.942 147.247 513.68 145.485C524.418 143.723 539.94 129.294 539.94 129.294Z" fill="white"/>
<path d="M496.962 146.874C496.962 146.874 490.365 143.736 489.747 142C494.88 142.585 500.075 142.249 505.089 141.01C513.667 138.939 522.592 130.606 532.25 129.14C541.907 127.674 546.023 132.599 546.023 132.599C546.023 132.599 543.888 139.467 540.544 143.633C540.544 143.633 537.561 150.153 526.193 151.658C514.824 153.163 496.962 146.874 496.962 146.874Z" fill="#7A9F5A"/>
<path d="M496.962 146.874L497.502 148.752C497.707 149.387 498.042 149.973 498.485 150.473C498.927 150.974 499.468 151.377 500.074 151.658C508.462 154.998 517.626 155.89 526.501 154.23C534.487 152.751 538.075 150.706 539.529 149.163C540.048 148.706 540.44 148.123 540.665 147.469C540.891 146.815 540.942 146.114 540.815 145.434L540.544 143.608C540.544 143.608 538.075 147.054 525.022 149.613C511.97 152.172 496.962 146.874 496.962 146.874Z" fill="#455A64"/>
<path d="M533.253 132.985C533.15 135.004 531.028 138.708 528.212 136.959V142.103C528.212 145.254 530.064 146.347 533.06 145.717C534.551 145.435 535.894 144.635 536.852 143.458C537.809 142.281 538.32 140.804 538.294 139.287C538.294 138.322 538.294 134.914 538.294 134.914C536.082 137.898 533.214 133.744 533.253 132.985Z" fill="#FAFAFA"/>
<path d="M514.619 170.948V164.119H517.281V168.286C517.281 168.992 517 169.669 516.501 170.168C516.002 170.668 515.325 170.948 514.619 170.948Z" fill="#263238"/>
<path d="M528.996 201.323L514.619 190.842V188.27C514.619 188.27 511.597 188.785 510.864 194.546C513.113 199.516 516.961 203.591 521.795 206.12L524.765 200.86L528.996 201.323Z" fill="#7A9F5A"/>
<path opacity="0.1" d="M528.996 201.323L514.619 190.842V188.27C514.619 188.27 511.597 188.785 510.864 194.546C513.113 199.516 516.961 203.591 521.795 206.12L524.765 200.86L528.996 201.323Z" fill="black"/>
<path d="M529.729 188.862C531.597 189.163 533.278 190.172 534.423 191.678C535.838 194.006 535.516 202.879 535.516 202.879L531.748 198.584L528.996 201.323C529.305 198.365 529.729 192.849 529.729 192.849V188.862Z" fill="#7A9F5A"/>
<path opacity="0.1" d="M529.729 188.862C531.597 189.163 533.278 190.172 534.423 191.678C535.838 194.006 535.516 202.879 535.516 202.879L531.748 198.584L528.996 201.323C529.305 198.365 529.729 192.849 529.729 192.849V188.862Z" fill="black"/>
<path d="M517.898 294.237C516.11 292.951 514.94 291.176 512.265 289.517C510.349 288.524 508.707 287.076 507.481 285.299C505.861 283.023 503.945 275.178 502.916 267.681C501.694 258.833 503.045 246.822 503.675 241.858C505.068 232.326 507 222.88 509.462 213.566C509.565 213.142 507.25 200.204 504.704 198.134C504.704 198.134 501.784 197.722 498.042 205.336C494.3 212.949 492.461 229.77 491.432 241.074C490.583 249.438 490.739 257.874 491.895 266.202C492.95 274.149 494.068 280.927 496.885 288.437C497.643 290.482 497.708 292.192 498.711 296.269C499.026 297.975 499.59 299.625 500.383 301.168C501.48 303.019 502.835 304.703 504.408 306.171C506.399 308.034 508.856 309.327 511.519 309.913C512.974 310.26 514.489 310.26 515.943 309.913C517.408 309.512 518.684 308.606 519.544 307.354C519.729 307.111 519.844 306.822 519.878 306.518C519.843 305.97 519.594 305.457 519.184 305.091C516.987 302.876 514.905 300.549 512.947 298.121C511.468 296.011 510.722 294.327 511.236 294.391C511.751 294.455 512.522 295.741 514.503 296.783C516.483 297.825 518.85 297.619 519.325 296.513C519.801 295.407 519.685 295.549 517.898 294.237Z" fill="#9A4A4D"/>
<path d="M506.08 194.546C506.08 194.546 512.51 207.522 509.642 218.98C507.006 229.448 505.514 242.848 504.948 246.603C504.157 252.321 503.813 258.091 503.919 263.861C504.099 269.854 506.298 282.766 506.298 282.766L496.229 286.495C496.229 286.495 490.133 270.009 489.555 254.705C488.976 239.402 490.455 221.269 492.937 210.647C494.03 206.069 495.316 196.385 506.08 194.546Z" fill="#7A9F5A"/>
<path opacity="0.1" d="M506.08 194.546C506.08 194.546 512.51 207.522 509.642 218.98C507.006 229.448 505.514 242.848 504.948 246.603C504.157 252.321 503.813 258.091 503.919 263.861C504.099 269.854 506.298 282.766 506.298 282.766L496.229 286.495C496.229 286.495 490.133 270.009 489.555 254.705C488.976 239.402 490.455 221.269 492.937 210.647C494.03 206.069 495.316 196.385 506.08 194.546Z" fill="black"/>
<path d="M516.432 216.627C516.432 216.627 526.025 216.228 529.973 214.698V212.782C525.974 214.312 516.432 214.762 516.432 214.762V216.627Z" fill="#37474F"/>
<path d="M495.47 209.618C495.47 209.618 498.492 208.563 502.659 210.904L502.762 210.48C502.808 210.26 502.78 210.03 502.683 209.828C502.585 209.626 502.423 209.461 502.222 209.361C500.43 208.419 498.393 208.046 496.383 208.293C496.194 208.327 496.018 208.415 495.878 208.548C495.739 208.681 495.642 208.852 495.599 209.039L495.47 209.618Z" fill="#37474F"/>
<path d="M500.804 215.49C501.304 213.244 500.344 211.119 498.659 210.744C496.975 210.368 495.204 211.885 494.703 214.131C494.203 216.377 495.163 218.502 496.847 218.878C498.532 219.253 500.303 217.736 500.804 215.49Z" fill="#37474F"/>
</svg>
