<svg width="643" height="643" viewBox="0 0 643 643" fill="none" xmlns="http://www.w3.org/2000/svg">
<g clip-path="url(#clip0_355_60)">
<path d="M212.434 77.0571C212.434 77.0571 114.994 126.697 66.3961 203.188C17.7981 279.679 21.6433 378.084 80.6964 451.129C139.75 524.173 252.622 514.58 347.13 560.85C441.638 607.12 545.907 597.591 590.595 499.559C635.284 401.528 567.898 364.89 556.323 251.439C544.75 137.988 442.474 -28.1377 212.434 77.0571Z" fill="#7A9F5A"/>
<path opacity="0.7" d="M212.434 77.0571C212.434 77.0571 114.994 126.697 66.3961 203.188C17.7981 279.679 21.6433 378.084 80.6964 451.129C139.75 524.173 252.622 514.58 347.13 560.85C441.638 607.12 545.907 597.591 590.595 499.559C635.284 401.528 567.898 364.89 556.323 251.439C544.75 137.988 442.474 -28.1377 212.434 77.0571Z" fill="#BCCFAC"/>
<path d="M499.289 521.769C499.289 521.769 444.532 425.666 457.173 401.155C469.814 376.644 502.093 420.715 502.093 420.715C502.093 420.715 474.019 331.081 489.464 291.922C504.909 252.763 531.581 291.922 532.983 319.635C534.384 347.349 527.363 394.609 527.363 394.609C527.363 394.609 538.602 296.873 565.274 326.155C591.946 355.438 531.581 453.276 531.581 453.276C531.581 453.276 572.296 430.463 570.881 459.796C569.466 489.13 521.756 515.21 521.756 515.21" fill="#7A9F5A"/>
<path d="M499.752 503.842C499.752 503.842 449.084 456.569 473.775 435.388C498.466 414.208 511.455 458.202 511.455 458.202C511.455 458.202 484.166 322.928 528.34 318.028C572.514 313.128 540.03 435.375 540.03 435.375C540.03 435.375 577.71 383.228 575.112 425.666C572.514 468.104 516.65 503.906 516.65 503.906" stroke="#263238" stroke-miterlimit="10"/>
<path d="M524.636 495.239L490.403 458.137" stroke="#263238" stroke-miterlimit="10"/>
<path d="M517.512 498.094L526.784 389.645" stroke="#263238" stroke-miterlimit="10"/>
<path d="M516.085 490.236L546.756 449.573" stroke="#263238" stroke-miterlimit="10"/>
<path d="M560.452 482.674H465.738L475.216 594.389H550.974L560.452 482.674Z" fill="#263238"/>
<path d="M198.88 353.123C186.565 347.081 173.836 341.923 160.789 337.691C141.987 331.904 119.804 337.202 119.315 343.465C118.826 349.728 122.17 346.86 126.555 353.65C130.941 360.44 128.96 376.309 135.236 390.777C141.511 405.244 160.3 412.472 160.3 412.472L198.88 353.123Z" fill="#7A9F5A" stroke="#263238" stroke-linecap="round" stroke-linejoin="round"/>
<path opacity="0.3" d="M186.341 367.114C186.341 367.114 157.406 348.789 140.534 342.513C123.662 336.237 122.697 345.407 122.697 345.407C125.473 346.425 127.855 348.297 129.502 350.752C131.149 353.208 131.977 356.122 131.866 359.077C131.866 369.905 137.281 392.333 150.436 396.962C163.592 401.592 186.341 367.114 186.341 367.114Z" fill="black"/>
<path d="M392.803 387.59C400.366 384.718 403.996 375.806 400.911 367.686C397.826 359.566 389.195 355.312 381.633 358.185C374.071 361.058 370.441 369.969 373.525 378.089C376.61 386.209 385.241 390.463 392.803 387.59Z" fill="#7A9F5A" stroke="#263238" stroke-linecap="round" stroke-linejoin="round"/>
<path d="M185.48 541.174L201.709 589.862C202.149 591.182 202.994 592.329 204.122 593.141C205.251 593.954 206.607 594.39 207.998 594.389H233.293C234.587 594.391 235.854 594.013 236.935 593.302C238.016 592.591 238.865 591.579 239.376 590.39L250.693 564.13" fill="#7A9F5A"/>
<path opacity="0.3" d="M193.62 541.174L207.046 589.862C207.3 591.085 207.949 592.19 208.892 593.008C209.835 593.826 211.021 594.311 212.267 594.389H233.242C234.394 594.33 235.499 593.913 236.402 593.196C237.306 592.479 237.963 591.498 238.283 590.39L247.671 564.13" fill="black"/>
<path d="M185.48 541.174L201.709 589.862C202.149 591.182 202.994 592.329 204.122 593.141C205.251 593.954 206.607 594.39 207.998 594.389H233.293C234.587 594.391 235.854 594.013 236.935 593.302C238.016 592.591 238.865 591.579 239.376 590.39L250.693 564.13" stroke="#263238" stroke-linecap="round" stroke-linejoin="round"/>
<path d="M307.547 541.174L291.33 589.862C290.89 591.182 290.046 592.329 288.917 593.141C287.788 593.954 286.433 594.39 285.042 594.389H259.772C258.478 594.391 257.212 594.013 256.13 593.302C255.049 592.591 254.2 591.579 253.689 590.39L242.372 564.13" fill="#263238"/>
<path d="M307.547 541.174L291.33 589.862C290.89 591.182 290.046 592.329 288.917 593.141C287.788 593.954 286.433 594.39 285.042 594.389H259.772C258.478 594.391 257.212 594.013 256.13 593.302C255.049 592.591 254.2 591.579 253.689 590.39L242.372 564.13" stroke="#263238" stroke-linecap="round" stroke-linejoin="round"/>
<path d="M361.289 541.174L345.059 589.862C344.619 591.182 343.775 592.329 342.646 593.141C341.517 593.954 340.162 594.39 338.771 594.389H313.475C312.181 594.391 310.915 594.013 309.834 593.302C308.752 592.591 307.904 591.579 307.392 590.39L296.076 564.13" fill="#7A9F5A"/>
<path opacity="0.3" d="M349.792 541.174L338.694 589.862C338.076 592.563 336.353 594.389 334.398 594.389H317.102C315.301 594.389 313.668 592.82 312.948 590.39L302.197 564.67" fill="black"/>
<path d="M361.289 541.174L345.059 589.862C344.619 591.182 343.775 592.329 342.646 593.141C341.517 593.954 340.162 594.39 338.771 594.389H313.475C312.181 594.391 310.915 594.013 309.834 593.302C308.752 592.591 307.904 591.579 307.392 590.39L296.076 564.13" stroke="#263238" stroke-linecap="round" stroke-linejoin="round"/>
<path d="M274.561 573.209C351.387 573.209 413.668 516.726 413.668 447.052C413.668 377.378 351.387 320.896 274.561 320.896C197.734 320.896 135.454 377.378 135.454 447.052C135.454 516.726 197.734 573.209 274.561 573.209Z" fill="#7A9F5A"/>
<path opacity="0.3" d="M370.368 360.852C378.525 377.029 382.776 394.894 382.778 413.012C382.778 482.687 320.497 539.168 243.671 539.168C215.082 539.313 187.059 531.194 162.975 515.789C187.229 548.337 228.291 569.801 274.857 569.801C349.445 569.801 409.887 515.004 409.887 447.399C409.81 413.565 394.712 382.996 370.368 360.852Z" fill="black"/>
<path d="M274.561 573.209C351.387 573.209 413.668 516.726 413.668 447.052C413.668 377.378 351.387 320.896 274.561 320.896C197.734 320.896 135.454 377.378 135.454 447.052C135.454 516.726 197.734 573.209 274.561 573.209Z" stroke="#263238" stroke-linecap="round" stroke-linejoin="round"/>
<path d="M401.965 458.369C398.93 483.78 387.214 506.838 369.571 525.048" stroke="#7A9F5A" stroke-width="2" stroke-linecap="round" stroke-linejoin="round"/>
<path d="M399.663 419.236C401.715 427.747 402.751 436.471 402.749 445.226" stroke="#7A9F5A" stroke-width="2" stroke-linecap="round" stroke-linejoin="round"/>
<path d="M240.071 328.766C251.533 326.086 263.266 324.74 275.037 324.754C282.573 324.752 290.099 325.302 297.555 326.4" stroke="#263238" stroke-width="4" stroke-linecap="round" stroke-linejoin="round"/>
<path d="M301.85 416.831C301.85 416.831 315.353 407.662 315.842 390.79C316.33 373.917 294.134 349.329 276.297 339.195C258.46 329.062 245.433 331.003 244.957 338.231C244.481 345.458 238.206 353.663 235.801 367.642C233.396 381.62 232.419 402.364 251.233 409.115" fill="#7A9F5A"/>
<path d="M301.85 416.831C301.85 416.831 315.353 407.662 315.842 390.79C316.33 373.917 294.134 349.329 276.297 339.195C258.46 329.062 245.433 331.003 244.957 338.231C244.481 345.458 238.206 353.663 235.801 367.642C233.396 381.62 232.419 402.364 251.233 409.115" stroke="#263238" stroke-linecap="round" stroke-linejoin="round"/>
<path opacity="0.3" d="M272.799 411.417L275.564 411.829C287.421 413.539 291.588 405.797 291.24 394.172C290.765 377.775 269.07 343.053 259.901 338.231C250.731 333.408 247.851 340.16 247.851 340.16C247.851 340.16 249.137 341.021 244.623 356.003C242.54 362.922 234.785 387.047 242.462 397.747C249.252 407.199 261.868 409.784 272.799 411.417Z" fill="black"/>
<path opacity="0.3" d="M311.212 394.802H311.032C310.864 394.78 310.701 394.725 310.554 394.639C310.408 394.554 310.279 394.441 310.176 394.306C310.073 394.171 309.998 394.016 309.955 393.852C309.912 393.688 309.902 393.517 309.926 393.349C310.065 392.36 310.147 391.364 310.17 390.365C310.428 381.363 303.084 368.439 291.009 356.518C290.888 356.399 290.792 356.257 290.726 356.101C290.66 355.945 290.625 355.777 290.624 355.607C290.623 355.438 290.655 355.27 290.719 355.112C290.783 354.955 290.877 354.812 290.996 354.692C291.115 354.571 291.257 354.475 291.413 354.409C291.569 354.343 291.737 354.308 291.906 354.307C292.076 354.306 292.244 354.338 292.401 354.402C292.558 354.466 292.701 354.56 292.822 354.679C305.579 367.281 313.025 380.643 312.742 390.43C312.715 391.522 312.629 392.612 312.485 393.696C312.442 394.003 312.289 394.284 312.055 394.487C311.821 394.69 311.522 394.802 311.212 394.802Z" fill="black"/>
<path opacity="0.3" d="M304.293 410.311C304.05 410.312 303.811 410.244 303.605 410.114C303.399 409.985 303.234 409.8 303.129 409.58C303.024 409.361 302.983 409.116 303.012 408.874C303.04 408.633 303.137 408.404 303.29 408.215C305.41 405.618 307.103 402.701 308.306 399.573C308.427 399.254 308.67 398.996 308.981 398.857C309.292 398.717 309.646 398.706 309.965 398.827C310.283 398.948 310.541 399.191 310.681 399.502C310.821 399.813 310.832 400.167 310.71 400.486C309.411 403.872 307.579 407.028 305.284 409.835C305.164 409.983 305.013 410.102 304.842 410.184C304.671 410.267 304.483 410.31 304.293 410.311Z" fill="black"/>
<path opacity="0.3" d="M210.644 471.462C214.447 456.218 201.19 439.784 181.034 434.755C160.877 429.726 141.454 438.006 137.651 453.249C133.847 468.492 147.104 484.926 167.26 489.955C187.417 494.985 206.84 486.705 210.644 471.462Z" fill="black"/>
<path d="M208.834 468.694C212.637 453.45 199.38 437.016 179.224 431.987C159.067 426.958 139.644 435.238 135.841 450.481C132.037 465.724 145.294 482.158 165.451 487.187C185.607 492.217 205.03 483.937 208.834 468.694Z" fill="#7A9F5A" stroke="#263238" stroke-linecap="round" stroke-linejoin="round"/>
<path d="M160.981 454.987C161.213 458.433 159.888 461.34 158.036 461.417C156.185 461.494 154.474 458.845 154.178 455.398C153.883 451.952 155.272 449.033 157.136 448.968C159.001 448.904 160.75 451.527 160.981 454.987Z" stroke="#263238" stroke-linecap="round" stroke-linejoin="round"/>
<path d="M186.47 461.378C186.701 464.838 185.377 467.731 183.525 467.808C181.673 467.885 179.963 465.236 179.667 461.777C179.371 458.318 180.76 455.424 182.625 455.347C184.489 455.27 186.2 457.919 186.47 461.378Z" stroke="#263238" stroke-linecap="round" stroke-linejoin="round"/>
<path d="M228.535 470.316C228.264 472.792 227.685 475.224 226.812 477.556C219.43 497.502 192.707 506.131 166.305 497.541" stroke="#263238" stroke-width="3" stroke-linecap="round" stroke-linejoin="round"/>
<path d="M224.227 468.425H232.419" stroke="#263238" stroke-width="3" stroke-linecap="round" stroke-linejoin="round"/>
<path d="M172.041 415.031C171.141 418.773 168.839 421.461 166.897 420.972C164.955 420.483 164.107 417.114 165.02 413.333C165.933 409.552 168.222 406.903 170.164 407.379C172.105 407.855 172.954 411.276 172.041 415.031Z" fill="#263238" stroke="#263238" stroke-linecap="round" stroke-linejoin="round"/>
<path d="M195.758 420.201C196.663 416.445 195.824 413.021 193.884 412.553C191.944 412.086 189.637 414.752 188.732 418.508C187.826 422.264 188.665 425.688 190.606 426.155C192.546 426.623 194.853 423.957 195.758 420.201Z" fill="#263238" stroke="#263238" stroke-linecap="round" stroke-linejoin="round"/>
<path d="M231.171 556.838L245.317 590.403C245.825 591.603 246.675 592.627 247.762 593.348C248.848 594.068 250.122 594.453 251.426 594.453H277.146C278.437 594.452 279.7 594.074 280.781 593.366C281.861 592.658 282.712 591.65 283.229 590.467L298.661 554.806H297.992" fill="#7A9F5A"/>
<path opacity="0.3" d="M261.058 552.556C252.905 552.556 243.414 553.623 235.737 551.848L248.957 590.338C249.271 591.456 249.928 592.448 250.834 593.174C251.74 593.901 252.851 594.325 254.011 594.389H275.204C276.35 594.326 277.448 593.908 278.346 593.194C279.244 592.48 279.899 591.505 280.219 590.403L293.015 551.141L287.871 551.848C271.552 553.623 271.976 552.556 261.058 552.556Z" fill="black"/>
<path d="M231.171 556.838L245.317 590.403C245.825 591.603 246.675 592.627 247.762 593.348C248.848 594.068 250.122 594.453 251.426 594.453H277.146C278.437 594.452 279.7 594.074 280.781 593.366C281.861 592.658 282.712 591.65 283.229 590.467L298.661 554.806H297.992" stroke="#263238" stroke-linecap="round" stroke-linejoin="round"/>
<path d="M487.394 34.0018L416.265 136.483C416.265 136.483 410.182 150.989 402.698 161.753C395.213 172.517 374.226 183.281 374.226 183.281C374.226 183.281 372.361 203.394 366.278 210.415C360.196 217.437 347.091 213.232 347.091 213.232C347.091 213.232 341.471 219.314 335.389 222.118C329.306 224.921 310.595 214.633 310.595 214.633C310.595 214.633 327.428 232.882 329.769 238.964C332.109 245.047 336.327 250.191 328.843 255.811C321.358 261.431 312.922 253.471 312.922 253.471C312.922 253.471 316.677 265.636 305.914 267.977C295.15 270.317 283.421 246.912 278.74 238.964C274.059 231.017 260.492 201.053 258.164 199.651C255.837 198.25 252.557 190.765 257.238 183.744C261.919 176.722 295.124 131.802 298.866 128.6C302.609 125.398 374.226 108.41 374.226 108.41L401.373 33.5388" fill="white"/>
<path opacity="0.2" d="M408.948 137.602C408.948 137.602 401.232 160.75 392.873 165.251C384.514 169.752 336.932 181.969 318.285 179.397C299.638 176.825 289.35 169.752 289.35 169.752C289.35 169.752 279.062 183.255 274.561 187.756C271.427 190.667 267.697 192.861 263.63 194.186C263.63 194.186 286.006 250.397 302.094 267.797C303.344 268.183 304.672 268.245 305.952 267.977C316.716 265.636 312.961 253.471 312.961 253.471C312.961 253.471 321.384 261.418 328.882 255.811C336.379 250.204 332.148 245.047 329.807 238.965C327.467 232.882 310.569 214.633 310.569 214.633C310.569 214.633 329.28 224.921 335.363 222.118C341.446 219.314 347.066 213.219 347.066 213.219C347.066 213.219 360.17 217.437 366.253 210.415C372.335 203.394 374.2 183.281 374.2 183.281C374.2 183.281 395.252 172.517 402.749 161.753C410.247 150.989 416.317 136.483 416.317 136.483L445.625 94.2638L408.948 137.602Z" fill="black"/>
<path d="M487.394 34.0018L416.265 136.483C416.265 136.483 410.182 150.989 402.698 161.753C395.213 172.517 374.226 183.281 374.226 183.281C374.226 183.281 372.361 203.394 366.278 210.415C360.196 217.437 347.091 213.232 347.091 213.232C347.091 213.232 341.471 219.314 335.389 222.118C329.306 224.921 310.595 214.633 310.595 214.633C310.595 214.633 327.428 232.882 329.769 238.964C332.109 245.047 336.327 250.191 328.843 255.811C321.358 261.431 312.922 253.471 312.922 253.471C312.922 253.471 316.677 265.636 305.914 267.977C295.15 270.317 283.421 246.912 278.74 238.964C274.059 231.017 260.492 201.053 258.164 199.651C255.837 198.25 252.557 190.765 257.238 183.744C261.919 176.722 295.124 131.802 298.866 128.6C302.609 125.398 374.226 108.41 374.226 108.41L401.373 33.5388" stroke="#263238" stroke-linecap="round" stroke-linejoin="round"/>
<path d="M244.121 307.277L245.986 314.298L274.998 307.277L302.146 236.148L284.36 230.065L244.121 307.277Z" fill="white" stroke="#263238" stroke-linecap="round" stroke-linejoin="round"/>
<path d="M253.008 212.756L293.247 227.738L273.596 316.639L226.336 302.133L253.008 212.756Z" fill="white" stroke="#263238" stroke-linecap="round" stroke-linejoin="round"/>
<path d="M227.918 296.822L269.854 309.154L288.103 230.065L251.362 218.26L227.918 296.822Z" fill="#7A9F5A" stroke="#263238" stroke-linecap="round" stroke-linejoin="round"/>
<path d="M251.194 237.82C249.369 237.337 247.462 237.249 245.6 237.563L234.644 274.278C236.229 275.823 238.18 276.943 240.315 277.532C248.905 279.898 258.319 272.915 261.328 261.945C264.337 250.976 259.772 240.173 251.194 237.82Z" fill="white" stroke="#263238" stroke-linecap="round" stroke-linejoin="round"/>
<path d="M249.638 243.903C249.583 243.878 249.538 243.835 249.51 243.782C249.482 243.728 249.473 243.666 249.484 243.607L249.973 241.704C250.002 241.623 250.013 241.538 250.005 241.452C249.997 241.367 249.97 241.285 249.925 241.212C249.88 241.139 249.82 241.077 249.748 241.031C249.676 240.984 249.594 240.955 249.51 240.945L247.465 240.456C247.385 240.424 247.298 240.41 247.212 240.417C247.126 240.424 247.043 240.452 246.969 240.497C246.895 240.542 246.833 240.603 246.787 240.677C246.742 240.75 246.714 240.833 246.706 240.919L246.307 242.887C246.292 242.946 246.257 242.997 246.208 243.033C246.158 243.068 246.098 243.085 246.037 243.08C245.34 243.008 244.638 243.008 243.941 243.08L240.199 255.644C243.118 258.679 247.671 260.196 247.066 262.743C246.719 264.183 245.407 265.315 243.105 264.8C242.624 264.736 242.162 264.569 241.751 264.31C241.34 264.051 240.99 263.707 240.724 263.3C240.458 262.894 240.282 262.435 240.21 261.955C240.137 261.475 240.168 260.985 240.302 260.518L240.418 260.003C240.482 259.721 240.315 259.489 239.916 259.399L239.132 259.206L236.907 266.639C237.8 267.452 238.845 268.081 239.98 268.491C240.038 268.516 240.085 268.561 240.113 268.618C240.141 268.674 240.149 268.738 240.135 268.8L239.672 270.433C239.636 270.513 239.621 270.6 239.626 270.687C239.632 270.775 239.659 270.859 239.704 270.934C239.75 271.008 239.813 271.071 239.888 271.116C239.963 271.161 240.047 271.187 240.135 271.192L242.257 271.706C242.331 271.746 242.414 271.768 242.498 271.77C242.583 271.773 242.667 271.756 242.744 271.722C242.821 271.687 242.888 271.635 242.942 271.57C242.996 271.505 243.034 271.428 243.054 271.346L243.401 269.726C243.42 269.666 243.458 269.613 243.509 269.576C243.56 269.539 243.621 269.52 243.684 269.52C248.211 269.996 251.284 267.771 252.236 263.81C252.982 260.646 251.914 257.959 248.609 255.425C245.587 253.136 242.398 252.005 242.951 249.664C243.337 248.044 244.816 247.298 246.809 247.774C247.302 247.853 247.773 248.038 248.187 248.317C248.602 248.595 248.952 248.96 249.212 249.387C249.472 249.813 249.637 250.291 249.695 250.787C249.753 251.284 249.703 251.787 249.548 252.262L249.458 252.622C249.458 252.84 249.587 253.033 249.985 253.136L253.753 254.036C253.834 254.066 253.919 254.077 254.005 254.069C254.09 254.061 254.172 254.034 254.245 253.989C254.318 253.944 254.38 253.884 254.426 253.812C254.473 253.74 254.502 253.658 254.512 253.573L254.795 252.377C255.657 248.609 253.843 245.407 249.638 243.903Z" fill="#263238"/>
<path d="M286.225 165.958C286.225 165.958 291.845 174.382 292.784 181.879C293.581 188.269 292.087 194.735 288.566 200.127C285.762 204.333 282.959 208.075 280.618 214.633C278.278 221.192 277.815 230.541 274.535 235.209C271.256 239.878 269.391 244.559 274.06 248.777C278.728 252.995 290.906 252.519 297.465 240.353C304.023 228.188 308.229 215.083 312.434 210.402C316.639 205.721 330.219 194.97 330.219 194.97C330.219 194.97 367.179 189.826 374.2 183.281C381.222 176.735 387.305 158.95 387.305 158.95" fill="white"/>
<path opacity="0.2" d="M384.514 165.251C384.514 165.251 364.581 178.111 349.149 181.969C333.717 185.827 324.072 185.827 318.285 193.543C312.498 201.259 306.711 225.693 298.995 230.194C291.279 234.695 289.993 218.62 279.062 221.835L278.702 221.964C277.635 226.979 276.696 232.123 274.535 235.222C271.256 239.903 269.391 244.571 274.06 248.79C278.728 253.008 290.906 252.532 297.465 240.366C304.023 228.201 308.229 215.096 312.434 210.415C316.639 205.734 330.219 194.983 330.219 194.983C330.219 194.983 367.179 189.839 374.2 183.294C378.444 179.333 382.341 171.282 384.758 165.521L384.514 165.251Z" fill="black"/>
<path d="M286.225 165.958C286.225 165.958 291.845 174.382 292.784 181.879C293.581 188.269 292.087 194.735 288.566 200.127C285.762 204.333 282.959 208.075 280.618 214.633C278.278 221.192 277.815 230.541 274.535 235.209C271.256 239.878 269.391 244.559 274.06 248.777C278.728 252.995 290.906 252.519 297.465 240.353C304.023 228.188 308.229 215.083 312.434 210.402C316.639 205.721 330.219 194.97 330.219 194.97C330.219 194.97 367.179 189.826 374.2 183.281C381.222 176.735 387.305 158.95 387.305 158.95" stroke="#263238" stroke-linecap="round" stroke-linejoin="round"/>
<path d="M271.719 189.363C271.719 189.363 283.897 195.909 292.783 188.425" stroke="#263238" stroke-linecap="round" stroke-linejoin="round"/>
<path d="M312.897 253.471L302.146 232.882" stroke="#263238" stroke-linecap="round" stroke-linejoin="round"/>
<path d="M347.066 213.232C347.066 213.232 355.489 206.21 355.013 190.765" stroke="#263238" stroke-linecap="round" stroke-linejoin="round"/>
<path d="M155.01 399H664.266" stroke="#263238" stroke-linecap="round" stroke-linejoin="round"/>
<path d="M110 399H133.148" stroke="#263238" stroke-linecap="round" stroke-linejoin="round"/>
</g>
<defs>
<clipPath id="clip0_355_60">
<rect width="643" height="643" fill="white"/>
</clipPath>
</defs>
</svg>
