<svg width="30" height="31" viewBox="0 0 30 31" fill="none" xmlns="http://www.w3.org/2000/svg">
<path d="M19.3748 17.9998H18.3873L18.0373 17.6623C18.8185 16.7548 19.3895 15.6858 19.7093 14.5319C20.0291 13.3779 20.0899 12.1675 19.8873 10.9873C19.2998 7.51235 16.3998 4.73735 12.8998 4.31235C11.6694 4.15668 10.4196 4.28456 9.24613 4.68621C8.07267 5.08785 7.00665 5.75262 6.12964 6.62964C5.25262 7.50665 4.58785 8.57267 4.18621 9.74613C3.78456 10.9196 3.65668 12.1694 3.81235 13.3998C4.23735 16.8998 7.01235 19.7998 10.4873 20.3873C11.6675 20.5899 12.8779 20.5291 14.0319 20.2093C15.1858 19.8895 16.2548 19.3185 17.1623 18.5373L17.4998 18.8873V19.8748L22.8123 25.1873C23.3248 25.6998 24.1623 25.6998 24.6748 25.1873C25.1873 24.6748 25.1873 23.8373 24.6748 23.3248L19.3748 17.9998ZM11.8748 17.9998C8.76235 17.9998 6.24985 15.4873 6.24985 12.3748C6.24985 9.26235 8.76235 6.74985 11.8748 6.74985C14.9873 6.74985 17.4998 9.26235 17.4998 12.3748C17.4998 15.4873 14.9873 17.9998 11.8748 17.9998Z" fill="#47564B"/>
</svg>
