<svg width="50" height="50" viewBox="0 0 50 50" fill="none" xmlns="http://www.w3.org/2000/svg">
<path d="M25 4.16602C13.5416 4.16602 4.16663 13.541 4.16663 24.9994C4.16663 36.4577 13.5416 45.8327 25 45.8327C36.4583 45.8327 45.8333 36.4577 45.8333 24.9994C45.8333 13.541 36.4583 4.16602 25 4.16602ZM25 41.666C15.8125 41.666 8.33329 34.1869 8.33329 24.9994C8.33329 15.8119 15.8125 8.33268 25 8.33268C34.1875 8.33268 41.6666 15.8119 41.6666 24.9994C41.6666 34.1869 34.1875 41.666 25 41.666ZM34.5625 15.791L20.8333 29.5202L15.4375 24.1452L12.5 27.0827L20.8333 35.416L37.5 18.7493L34.5625 15.791Z" fill="#7A9F5A"/>
</svg>
