<svg width="150" height="84" viewBox="0 0 150 84" fill="none" xmlns="http://www.w3.org/2000/svg">
<path d="M32.788 20.7H20.58V55H13.048V20.7H0.84V14.512H32.788V20.7ZM37.8853 31.256C38.7813 29.5387 39.8453 28.1947 41.0773 27.224C42.3093 26.2347 43.7653 25.74 45.4453 25.74C46.7706 25.74 47.8346 26.0293 48.6373 26.608L48.1893 31.788C48.096 32.124 47.956 32.3667 47.7693 32.516C47.6013 32.6467 47.368 32.712 47.0693 32.712C46.7893 32.712 46.3693 32.6653 45.8093 32.572C45.268 32.4787 44.736 32.432 44.2133 32.432C43.448 32.432 42.7666 32.544 42.1693 32.768C41.572 32.992 41.0306 33.3187 40.5453 33.748C40.0786 34.1587 39.6586 34.6627 39.2853 35.26C38.9306 35.8573 38.5946 36.5387 38.2773 37.304V55H31.3613V26.272H35.4213C36.1306 26.272 36.6253 26.4027 36.9053 26.664C37.1853 26.9067 37.372 27.3547 37.4653 28.008L37.8853 31.256ZM64.1436 25.824C66.2716 25.824 68.2036 26.1693 69.9396 26.86C71.6943 27.5507 73.1876 28.5307 74.4196 29.8C75.6703 31.0693 76.6316 32.6187 77.3036 34.448C77.9756 36.2773 78.3116 38.3213 78.3116 40.58C78.3116 42.8573 77.9756 44.9107 77.3036 46.74C76.6316 48.5693 75.6703 50.128 74.4196 51.416C73.1876 52.704 71.6943 53.6933 69.9396 54.384C68.2036 55.0747 66.2716 55.42 64.1436 55.42C61.997 55.42 60.0463 55.0747 58.2916 54.384C56.537 53.6933 55.0343 52.704 53.7836 51.416C52.5516 50.128 51.5903 48.5693 50.8996 46.74C50.2276 44.9107 49.8916 42.8573 49.8916 40.58C49.8916 38.3213 50.2276 36.2773 50.8996 34.448C51.5903 32.6187 52.5516 31.0693 53.7836 29.8C55.0343 28.5307 56.537 27.5507 58.2916 26.86C60.0463 26.1693 61.997 25.824 64.1436 25.824ZM64.1436 50.1C66.533 50.1 68.297 49.2973 69.4356 47.692C70.593 46.0867 71.1716 43.7347 71.1716 40.636C71.1716 37.5373 70.593 35.176 69.4356 33.552C68.297 31.928 66.533 31.116 64.1436 31.116C61.717 31.116 59.9156 31.9373 58.7396 33.58C57.5823 35.204 57.0036 37.556 57.0036 40.636C57.0036 43.716 57.5823 46.068 58.7396 47.692C59.9156 49.2973 61.717 50.1 64.1436 50.1ZM90.0559 29.8C90.6345 29.2213 91.2412 28.6893 91.8759 28.204C92.5292 27.7 93.2105 27.28 93.9199 26.944C94.6479 26.5893 95.4225 26.3187 96.2439 26.132C97.0652 25.9267 97.9612 25.824 98.9319 25.824C100.5 25.824 101.891 26.0947 103.104 26.636C104.317 27.1587 105.325 27.9053 106.128 28.876C106.949 29.828 107.565 30.976 107.976 32.32C108.405 33.6453 108.62 35.1107 108.62 36.716V55H101.704V36.716C101.704 34.9613 101.303 33.608 100.5 32.656C99.6972 31.6853 98.4745 31.2 96.8319 31.2C95.6372 31.2 94.5172 31.4707 93.4719 32.012C92.4265 32.5533 91.4372 33.2907 90.5039 34.224V55H83.5879V26.272H87.8159C88.7119 26.272 89.2999 26.692 89.5799 27.532L90.0559 29.8ZM133.705 37.332C133.705 36.436 133.575 35.596 133.313 34.812C133.071 34.0093 132.697 33.3093 132.193 32.712C131.689 32.1147 131.045 31.648 130.261 31.312C129.496 30.9573 128.6 30.78 127.573 30.78C125.576 30.78 123.999 31.3493 122.841 32.488C121.703 33.6267 120.975 35.2413 120.657 37.332H133.705ZM120.517 41.504C120.629 42.9787 120.891 44.2573 121.301 45.34C121.712 46.404 122.253 47.2907 122.925 48C123.597 48.6907 124.391 49.2133 125.305 49.568C126.239 49.904 127.265 50.072 128.385 50.072C129.505 50.072 130.467 49.9413 131.269 49.68C132.091 49.4187 132.8 49.1293 133.397 48.812C134.013 48.4947 134.545 48.2053 134.993 47.944C135.46 47.6827 135.908 47.552 136.337 47.552C136.916 47.552 137.345 47.7667 137.625 48.196L139.613 50.716C138.848 51.612 137.989 52.368 137.037 52.984C136.085 53.5813 135.087 54.0667 134.041 54.44C133.015 54.7947 131.96 55.0467 130.877 55.196C129.813 55.3453 128.777 55.42 127.769 55.42C125.772 55.42 123.915 55.0933 122.197 54.44C120.48 53.768 118.987 52.788 117.717 51.5C116.448 50.1933 115.449 48.588 114.721 46.684C113.993 44.7613 113.629 42.54 113.629 40.02C113.629 38.06 113.947 36.2213 114.581 34.504C115.216 32.768 116.121 31.2653 117.297 29.996C118.492 28.708 119.939 27.6907 121.637 26.944C123.355 26.1973 125.287 25.824 127.433 25.824C129.244 25.824 130.915 26.1133 132.445 26.692C133.976 27.2707 135.292 28.12 136.393 29.24C137.495 30.3413 138.353 31.704 138.969 33.328C139.604 34.9333 139.921 36.772 139.921 38.844C139.921 39.8893 139.809 40.5987 139.585 40.972C139.361 41.3267 138.932 41.504 138.297 41.504H120.517Z" fill="white"/>
<path d="M16.078 77.414C16.1807 77.414 16.2717 77.4537 16.351 77.533L17.093 78.338C16.6823 78.8467 16.176 79.2364 15.574 79.507C14.9767 79.7777 14.258 79.913 13.418 79.913C12.6667 79.913 11.99 79.7847 11.388 79.528C10.7907 79.2714 10.2797 78.9144 9.855 78.457C9.43033 77.9997 9.10367 77.4537 8.875 76.819C8.651 76.1844 8.539 75.4914 8.539 74.74C8.539 73.9794 8.66033 73.284 8.903 72.654C9.14567 72.0194 9.48633 71.4734 9.925 71.016C10.3683 70.5587 10.8957 70.204 11.507 69.952C12.1183 69.6954 12.795 69.567 13.537 69.567C14.2743 69.567 14.9277 69.6884 15.497 69.931C16.071 70.1737 16.5587 70.491 16.96 70.883L16.33 71.758C16.2927 71.814 16.2437 71.863 16.183 71.905C16.127 71.947 16.0477 71.968 15.945 71.968C15.875 71.968 15.8027 71.9494 15.728 71.912C15.6533 71.87 15.5717 71.821 15.483 71.765C15.3943 71.7044 15.2917 71.639 15.175 71.569C15.0583 71.499 14.923 71.436 14.769 71.38C14.615 71.3194 14.4353 71.2704 14.23 71.233C14.0293 71.191 13.796 71.17 13.53 71.17C13.0773 71.17 12.662 71.2517 12.284 71.415C11.9107 71.5737 11.5887 71.807 11.318 72.115C11.0473 72.4184 10.8373 72.7917 10.688 73.235C10.5387 73.6737 10.464 74.1754 10.464 74.74C10.464 75.3094 10.5433 75.8157 10.702 76.259C10.8653 76.7024 11.0847 77.0757 11.36 77.379C11.6353 77.6824 11.9597 77.9157 12.333 78.079C12.7063 78.2377 13.1077 78.317 13.537 78.317C13.7937 78.317 14.0247 78.303 14.23 78.275C14.44 78.247 14.6313 78.2027 14.804 78.142C14.9813 78.0814 15.147 78.0044 15.301 77.911C15.4597 77.813 15.616 77.694 15.77 77.554C15.8167 77.512 15.8657 77.4794 15.917 77.456C15.9683 77.428 16.022 77.414 16.078 77.414ZM25.4039 76.735C24.9045 76.7584 24.4845 76.8027 24.1439 76.868C23.8032 76.9287 23.5302 77.008 23.3249 77.106C23.1195 77.204 22.9725 77.3184 22.8839 77.449C22.7952 77.5797 22.7509 77.722 22.7509 77.876C22.7509 78.1794 22.8395 78.3964 23.0169 78.527C23.1989 78.6577 23.4345 78.723 23.7239 78.723C24.0785 78.723 24.3842 78.66 24.6409 78.534C24.9022 78.4034 25.1565 78.2074 25.4039 77.946V76.735ZM21.4419 73.62C22.2679 72.864 23.2619 72.486 24.4239 72.486C24.8439 72.486 25.2195 72.556 25.5509 72.696C25.8822 72.8314 26.1622 73.0227 26.3909 73.27C26.6195 73.5127 26.7922 73.8044 26.9089 74.145C27.0302 74.4857 27.0909 74.859 27.0909 75.265V79.801H26.3069C26.1435 79.801 26.0175 79.7777 25.9289 79.731C25.8402 79.6797 25.7702 79.5794 25.7189 79.43L25.5649 78.912C25.3829 79.0754 25.2055 79.22 25.0329 79.346C24.8602 79.4674 24.6805 79.57 24.4939 79.654C24.3072 79.738 24.1065 79.801 23.8919 79.843C23.6819 79.8897 23.4485 79.913 23.1919 79.913C22.8885 79.913 22.6085 79.8734 22.3519 79.794C22.0952 79.71 21.8735 79.5864 21.6869 79.423C21.5002 79.2597 21.3555 79.0567 21.2529 78.814C21.1502 78.5714 21.0989 78.289 21.0989 77.967C21.0989 77.785 21.1292 77.6054 21.1899 77.428C21.2505 77.246 21.3485 77.0734 21.4839 76.91C21.6239 76.7467 21.8035 76.5927 22.0229 76.448C22.2422 76.3034 22.5105 76.1774 22.8279 76.07C23.1499 75.9627 23.5232 75.8764 23.9479 75.811C24.3725 75.741 24.8579 75.699 25.4039 75.685V75.265C25.4039 74.7844 25.3012 74.4297 25.0959 74.201C24.8905 73.9677 24.5942 73.851 24.2069 73.851C23.9269 73.851 23.6935 73.8837 23.5069 73.949C23.3249 74.0144 23.1639 74.089 23.0239 74.173C22.8839 74.2524 22.7555 74.3247 22.6389 74.39C22.5269 74.4554 22.4009 74.488 22.2609 74.488C22.1395 74.488 22.0369 74.4577 21.9529 74.397C21.8689 74.3317 21.8012 74.257 21.7499 74.173L21.4419 73.62ZM33.9482 77.939C34.1442 78.177 34.3566 78.345 34.5852 78.443C34.8186 78.541 35.0706 78.59 35.3412 78.59C35.6026 78.59 35.8382 78.541 36.0482 78.443C36.2582 78.345 36.4356 78.1957 36.5802 77.995C36.7296 77.7944 36.8439 77.5424 36.9232 77.239C37.0026 76.931 37.0422 76.5694 37.0422 76.154C37.0422 75.734 37.0072 75.3794 36.9372 75.09C36.8719 74.796 36.7762 74.558 36.6502 74.376C36.5242 74.194 36.3702 74.061 36.1882 73.977C36.0109 73.893 35.8079 73.851 35.5792 73.851C35.2199 73.851 34.9142 73.928 34.6622 74.082C34.4102 74.2314 34.1722 74.4437 33.9482 74.719V77.939ZM33.8572 73.599C34.1512 73.2677 34.4849 72.9994 34.8582 72.794C35.2316 72.5887 35.6702 72.486 36.1742 72.486C36.5662 72.486 36.9232 72.5677 37.2452 72.731C37.5719 72.8944 37.8519 73.1324 38.0852 73.445C38.3232 73.753 38.5052 74.1357 38.6312 74.593C38.7619 75.0457 38.8272 75.566 38.8272 76.154C38.8272 76.6907 38.7549 77.1877 38.6102 77.645C38.4656 78.1024 38.2579 78.499 37.9872 78.835C37.7212 79.171 37.3969 79.4347 37.0142 79.626C36.6362 79.8127 36.2116 79.906 35.7402 79.906C35.3389 79.906 34.9959 79.8454 34.7112 79.724C34.4266 79.598 34.1722 79.4254 33.9482 79.206V82.146H32.2192V72.619H33.2762C33.5002 72.619 33.6472 72.724 33.7172 72.934L33.8572 73.599ZM45.4683 72.619V79.801H43.7323V72.619H45.4683ZM45.7063 70.526C45.7063 70.6754 45.6759 70.8154 45.6153 70.946C45.5546 71.0767 45.4729 71.191 45.3703 71.289C45.2723 71.387 45.1556 71.4664 45.0203 71.527C44.8849 71.583 44.7403 71.611 44.5863 71.611C44.4369 71.611 44.2946 71.583 44.1593 71.527C44.0286 71.4664 43.9143 71.387 43.8163 71.289C43.7183 71.191 43.6389 71.0767 43.5783 70.946C43.5223 70.8154 43.4943 70.6754 43.4943 70.526C43.4943 70.372 43.5223 70.2274 43.5783 70.092C43.6389 69.9567 43.7183 69.84 43.8163 69.742C43.9143 69.644 44.0286 69.567 44.1593 69.511C44.2946 69.4504 44.4369 69.42 44.5863 69.42C44.7403 69.42 44.8849 69.4504 45.0203 69.511C45.1556 69.567 45.2723 69.644 45.3703 69.742C45.4729 69.84 45.5546 69.9567 45.6153 70.092C45.6759 70.2274 45.7063 70.372 45.7063 70.526ZM53.125 79.913C52.4996 79.913 52.019 79.738 51.683 79.388C51.3516 79.0334 51.186 78.5457 51.186 77.925V73.914H50.451C50.3576 73.914 50.2783 73.8837 50.213 73.823C50.1476 73.7624 50.115 73.6714 50.115 73.55V72.864L51.27 72.675L51.634 70.715C51.6573 70.6217 51.7016 70.5494 51.767 70.498C51.8323 70.4467 51.9163 70.421 52.019 70.421H52.915V72.682H54.833V73.914H52.915V77.806C52.915 78.03 52.9686 78.205 53.076 78.331C53.188 78.457 53.3396 78.52 53.531 78.52C53.6383 78.52 53.727 78.5084 53.797 78.485C53.8716 78.457 53.9346 78.429 53.986 78.401C54.042 78.373 54.091 78.3474 54.133 78.324C54.175 78.296 54.217 78.282 54.259 78.282C54.3103 78.282 54.3523 78.296 54.385 78.324C54.4176 78.3474 54.4526 78.3847 54.49 78.436L55.008 79.276C54.756 79.486 54.4666 79.6447 54.14 79.752C53.8133 79.8594 53.475 79.913 53.125 79.913ZM63.2339 76.735C62.7346 76.7584 62.3146 76.8027 61.9739 76.868C61.6333 76.9287 61.3603 77.008 61.1549 77.106C60.9496 77.204 60.8026 77.3184 60.7139 77.449C60.6253 77.5797 60.5809 77.722 60.5809 77.876C60.5809 78.1794 60.6696 78.3964 60.8469 78.527C61.0289 78.6577 61.2646 78.723 61.5539 78.723C61.9086 78.723 62.2143 78.66 62.4709 78.534C62.7323 78.4034 62.9866 78.2074 63.2339 77.946V76.735ZM59.2719 73.62C60.0979 72.864 61.0919 72.486 62.2539 72.486C62.6739 72.486 63.0496 72.556 63.3809 72.696C63.7123 72.8314 63.9923 73.0227 64.2209 73.27C64.4496 73.5127 64.6223 73.8044 64.7389 74.145C64.8603 74.4857 64.9209 74.859 64.9209 75.265V79.801H64.1369C63.9736 79.801 63.8476 79.7777 63.7589 79.731C63.6703 79.6797 63.6003 79.5794 63.5489 79.43L63.3949 78.912C63.2129 79.0754 63.0356 79.22 62.8629 79.346C62.6903 79.4674 62.5106 79.57 62.3239 79.654C62.1373 79.738 61.9366 79.801 61.7219 79.843C61.5119 79.8897 61.2786 79.913 61.0219 79.913C60.7186 79.913 60.4386 79.8734 60.1819 79.794C59.9253 79.71 59.7036 79.5864 59.5169 79.423C59.3303 79.2597 59.1856 79.0567 59.0829 78.814C58.9803 78.5714 58.9289 78.289 58.9289 77.967C58.9289 77.785 58.9593 77.6054 59.0199 77.428C59.0806 77.246 59.1786 77.0734 59.3139 76.91C59.4539 76.7467 59.6336 76.5927 59.8529 76.448C60.0723 76.3034 60.3406 76.1774 60.6579 76.07C60.9799 75.9627 61.3533 75.8764 61.7779 75.811C62.2026 75.741 62.6879 75.699 63.2339 75.685V75.265C63.2339 74.7844 63.1313 74.4297 62.9259 74.201C62.7206 73.9677 62.4243 73.851 62.0369 73.851C61.7569 73.851 61.5236 73.8837 61.3369 73.949C61.1549 74.0144 60.9939 74.089 60.8539 74.173C60.7139 74.2524 60.5856 74.3247 60.4689 74.39C60.3569 74.4554 60.2309 74.488 60.0909 74.488C59.9696 74.488 59.8669 74.4577 59.7829 74.397C59.6989 74.3317 59.6313 74.257 59.5799 74.173L59.2719 73.62ZM71.7993 69.399V79.801H70.0703V69.399H71.7993ZM85.6763 69.399V79.801H83.9473V69.399H85.6763ZM92.6909 72.619V79.801H90.9549V72.619H92.6909ZM92.9289 70.526C92.9289 70.6754 92.8986 70.8154 92.8379 70.946C92.7773 71.0767 92.6956 71.191 92.5929 71.289C92.4949 71.387 92.3783 71.4664 92.2429 71.527C92.1076 71.583 91.9629 71.611 91.8089 71.611C91.6596 71.611 91.5173 71.583 91.3819 71.527C91.2513 71.4664 91.1369 71.387 91.0389 71.289C90.9409 71.191 90.8616 71.0767 90.8009 70.946C90.7449 70.8154 90.7169 70.6754 90.7169 70.526C90.7169 70.372 90.7449 70.2274 90.8009 70.092C90.8616 69.9567 90.9409 69.84 91.0389 69.742C91.1369 69.644 91.2513 69.567 91.3819 69.511C91.5173 69.4504 91.6596 69.42 91.8089 69.42C91.9629 69.42 92.1076 69.4504 92.2429 69.511C92.3783 69.567 92.4949 69.644 92.5929 69.742C92.6956 69.84 92.7773 69.9567 92.8379 70.092C92.8986 70.2274 92.9289 70.372 92.9289 70.526ZM97.9536 79.801V72.619H99.0106C99.2346 72.619 99.3816 72.724 99.4516 72.934L99.5636 73.466C99.6896 73.326 99.8203 73.1977 99.9556 73.081C100.096 72.9644 100.243 72.864 100.397 72.78C100.555 72.696 100.723 72.6307 100.901 72.584C101.083 72.5327 101.281 72.507 101.496 72.507C101.948 72.507 102.319 72.6307 102.609 72.878C102.903 73.1207 103.122 73.445 103.267 73.851C103.379 73.613 103.519 73.41 103.687 73.242C103.855 73.0694 104.039 72.9294 104.24 72.822C104.44 72.7147 104.653 72.6354 104.877 72.584C105.105 72.5327 105.334 72.507 105.563 72.507C105.959 72.507 106.312 72.5677 106.62 72.689C106.928 72.8104 107.187 72.9877 107.397 73.221C107.607 73.4544 107.765 73.739 107.873 74.075C107.985 74.411 108.041 74.796 108.041 75.23V79.801H106.312V75.23C106.312 74.7727 106.211 74.4297 106.011 74.201C105.81 73.9677 105.516 73.851 105.129 73.851C104.951 73.851 104.786 73.8814 104.632 73.942C104.482 74.0027 104.349 74.0914 104.233 74.208C104.121 74.32 104.032 74.4624 103.967 74.635C103.901 74.8077 103.869 75.006 103.869 75.23V79.801H102.133V75.23C102.133 74.7494 102.035 74.3994 101.839 74.18C101.647 73.9607 101.365 73.851 100.992 73.851C100.74 73.851 100.504 73.914 100.285 74.04C100.07 74.1614 99.8693 74.3294 99.6826 74.544V79.801H97.9536ZM114.976 72.619V79.801H113.24V72.619H114.976ZM115.214 70.526C115.214 70.6754 115.184 70.8154 115.123 70.946C115.062 71.0767 114.981 71.191 114.878 71.289C114.78 71.387 114.663 71.4664 114.528 71.527C114.393 71.583 114.248 71.611 114.094 71.611C113.945 71.611 113.802 71.583 113.667 71.527C113.536 71.4664 113.422 71.387 113.324 71.289C113.226 71.191 113.147 71.0767 113.086 70.946C113.03 70.8154 113.002 70.6754 113.002 70.526C113.002 70.372 113.03 70.2274 113.086 70.092C113.147 69.9567 113.226 69.84 113.324 69.742C113.422 69.644 113.536 69.567 113.667 69.511C113.802 69.4504 113.945 69.42 114.094 69.42C114.248 69.42 114.393 69.4504 114.528 69.511C114.663 69.567 114.78 69.644 114.878 69.742C114.981 69.84 115.062 69.9567 115.123 70.092C115.184 70.2274 115.214 70.372 115.214 70.526ZM122.633 79.913C122.007 79.913 121.527 79.738 121.191 79.388C120.859 79.0334 120.694 78.5457 120.694 77.925V73.914H119.959C119.865 73.914 119.786 73.8837 119.721 73.823C119.655 73.7624 119.623 73.6714 119.623 73.55V72.864L120.778 72.675L121.142 70.715C121.165 70.6217 121.209 70.5494 121.275 70.498C121.34 70.4467 121.424 70.421 121.527 70.421H122.423V72.682H124.341V73.914H122.423V77.806C122.423 78.03 122.476 78.205 122.584 78.331C122.696 78.457 122.847 78.52 123.039 78.52C123.146 78.52 123.235 78.5084 123.305 78.485C123.379 78.457 123.442 78.429 123.494 78.401C123.55 78.373 123.599 78.3474 123.641 78.324C123.683 78.296 123.725 78.282 123.767 78.282C123.818 78.282 123.86 78.296 123.893 78.324C123.925 78.3474 123.96 78.3847 123.998 78.436L124.516 79.276C124.264 79.486 123.974 79.6447 123.648 79.752C123.321 79.8594 122.983 79.913 122.633 79.913ZM133.52 75.384C133.52 75.16 133.487 74.95 133.422 74.754C133.361 74.5534 133.268 74.3784 133.142 74.229C133.016 74.0797 132.855 73.963 132.659 73.879C132.468 73.7904 132.244 73.746 131.987 73.746C131.488 73.746 131.093 73.8884 130.804 74.173C130.519 74.4577 130.337 74.8614 130.258 75.384H133.52ZM130.223 76.427C130.251 76.7957 130.316 77.1154 130.419 77.386C130.522 77.652 130.657 77.8737 130.825 78.051C130.993 78.2237 131.191 78.3544 131.42 78.443C131.653 78.527 131.91 78.569 132.19 78.569C132.47 78.569 132.71 78.5364 132.911 78.471C133.116 78.4057 133.294 78.3334 133.443 78.254C133.597 78.1747 133.73 78.1024 133.842 78.037C133.959 77.9717 134.071 77.939 134.178 77.939C134.323 77.939 134.43 77.9927 134.5 78.1L134.997 78.73C134.806 78.954 134.591 79.143 134.353 79.297C134.115 79.4464 133.865 79.5677 133.604 79.661C133.347 79.7497 133.084 79.8127 132.813 79.85C132.547 79.8874 132.288 79.906 132.036 79.906C131.537 79.906 131.072 79.8244 130.643 79.661C130.214 79.493 129.84 79.248 129.523 78.926C129.206 78.5994 128.956 78.198 128.774 77.722C128.592 77.2414 128.501 76.686 128.501 76.056C128.501 75.566 128.58 75.1064 128.739 74.677C128.898 74.243 129.124 73.8674 129.418 73.55C129.717 73.228 130.078 72.9737 130.503 72.787C130.932 72.6004 131.415 72.507 131.952 72.507C132.405 72.507 132.822 72.5794 133.205 72.724C133.588 72.8687 133.917 73.081 134.192 73.361C134.467 73.6364 134.682 73.977 134.836 74.383C134.995 74.7844 135.074 75.244 135.074 75.762C135.074 76.0234 135.046 76.2007 134.99 76.294C134.934 76.3827 134.827 76.427 134.668 76.427H130.223ZM144.38 74.453C144.184 74.215 143.969 74.047 143.736 73.949C143.507 73.851 143.26 73.802 142.994 73.802C142.732 73.802 142.497 73.851 142.287 73.949C142.077 74.047 141.897 74.1964 141.748 74.397C141.598 74.593 141.484 74.845 141.405 75.153C141.325 75.4564 141.286 75.8157 141.286 76.231C141.286 76.651 141.318 77.008 141.384 77.302C141.454 77.5914 141.552 77.8294 141.678 78.016C141.804 78.198 141.958 78.331 142.14 78.415C142.322 78.4944 142.525 78.534 142.749 78.534C143.108 78.534 143.414 78.4594 143.666 78.31C143.918 78.1607 144.156 77.9484 144.38 77.673V74.453ZM146.109 69.399V79.801H145.052C144.823 79.801 144.678 79.696 144.618 79.486L144.471 78.793C144.181 79.1244 143.848 79.3927 143.47 79.598C143.096 79.8034 142.66 79.906 142.161 79.906C141.769 79.906 141.409 79.8244 141.083 79.661C140.756 79.4977 140.474 79.262 140.236 78.954C140.002 78.6414 139.82 78.2564 139.69 77.799C139.564 77.3417 139.501 76.819 139.501 76.231C139.501 75.699 139.573 75.2044 139.718 74.747C139.862 74.2897 140.07 73.893 140.341 73.557C140.611 73.221 140.936 72.9597 141.314 72.773C141.692 72.5817 142.116 72.486 142.588 72.486C142.989 72.486 143.332 72.549 143.617 72.675C143.901 72.801 144.156 72.9714 144.38 73.186V69.399H146.109Z" fill="white"/>
</svg>
