<svg width="55" height="55" viewBox="0 0 55 55" fill="none" xmlns="http://www.w3.org/2000/svg">
<circle cx="27.5" cy="27.5" r="27.5" fill="#7A9F5A" fill-opacity="0.3"/>
<path d="M40.5 16H15.5C14.1375 16.05 13.05 17.1375 13 18.5V36C13.05 37.3625 14.1375 38.45 15.5 38.5H40.5C41.8625 38.45 42.95 37.3625 43 36V18.5C42.977 17.8443 42.7062 17.2217 42.2423 16.7577C41.7783 16.2938 41.1557 16.023 40.5 16ZM40.5 36H15.5V18.5H40.5V36ZM30.5 33.5V31.9375C30.5 29.8625 26.325 28.8125 24.25 28.8125C22.175 28.8125 18 29.8625 18 31.9375V33.5H30.5ZM24.25 21C23.4212 21 22.6263 21.3292 22.0403 21.9153C21.4542 22.5013 21.125 23.2962 21.125 24.125C21.125 24.5354 21.2058 24.9417 21.3629 25.3209C21.5199 25.7 21.7501 26.0445 22.0403 26.3347C22.6263 26.9208 23.4212 27.25 24.25 27.25C24.6604 27.25 25.0667 27.1692 25.4459 27.0121C25.825 26.8551 26.1695 26.6249 26.4597 26.3347C26.7499 26.0445 26.9801 25.7 27.1371 25.3209C27.2942 24.9417 27.375 24.5354 27.375 24.125C27.375 23.7146 27.2942 23.3083 27.1371 22.9291C26.9801 22.55 26.7499 22.2055 26.4597 21.9153C26.1695 21.6251 25.825 21.3949 25.4459 21.2379C25.0667 21.0808 24.6604 21 24.25 21ZM30.5 21V22.25H38V21H30.5ZM30.5 23.5V24.75H38V23.5H30.5ZM30.5 26V27.25H35.5V26H30.5Z" fill="#7A9F5A"/>
</svg>
